<svg version="1.1" id="Layer_1" xmlns="http://www.w3.org/2000/svg" xmlns:xlink="http://www.w3.org/1999/xlink" x="0px" y="0px"
	 width="100%" viewBox="0 0 1024 1024" enable-background="new 0 0 1024 1024" xml:space="preserve">
<path fill="#000000" opacity="1.000000" stroke="none" 
	d="
M146.295990,481.639160 
	C137.475403,467.377228 130.233612,452.829285 127.228416,436.520203 
	C117.510803,383.783264 148.675201,337.234253 200.069412,326.727844 
	C230.957504,320.413452 259.408813,326.656647 283.825745,347.074402 
	C302.359375,362.572540 312.278137,382.943604 315.435883,406.926483 
	C319.246460,435.867859 309.682770,460.872375 294.258362,484.498199 
	C271.226257,519.777039 248.312424,555.132324 224.439362,589.852844 
	C221.529510,594.084900 220.576309,594.166016 217.763779,589.913452 
	C193.975555,553.945374 170.246292,517.938293 146.295990,481.639160 
M236.216125,490.712158 
	C248.365524,479.280487 259.781830,467.179504 269.905548,453.892822 
	C280.785980,439.612946 284.298737,423.957581 279.452454,406.423187 
	C271.809204,378.768738 248.303513,360.717499 221.930527,359.467072 
	C191.925018,358.044434 161.639542,381.996338 160.326096,419.093323 
	C159.845749,432.660309 164.069305,444.517212 172.458298,455.151215 
	C186.738846,473.253448 202.788193,489.549408 220.975204,504.236206 
	C226.011459,499.771332 230.852234,495.479767 236.216125,490.712158 
z"/>
<path fill="#000000" opacity="1.000000" stroke="none" 
	d="
M368.621918,368.115479 
	C367.420929,365.005066 368.100189,363.639160 371.240112,363.684082 
	C377.070831,363.767548 382.907196,363.831512 388.734070,363.660522 
	C391.902924,363.567535 392.693878,365.573578 393.218536,367.928497 
	C397.944672,389.142731 402.626312,410.366882 407.350616,431.581543 
	C407.890320,434.005096 408.611542,436.388214 409.477692,439.653870 
	C414.902771,422.655975 418.252106,405.977173 422.583923,389.563263 
	C424.489685,382.342133 426.115387,375.046478 427.823578,367.774170 
	C428.473511,365.007233 429.806732,363.486572 432.973816,363.629517 
	C437.796204,363.847198 442.649658,363.908447 447.463654,363.611053 
	C451.300507,363.374023 452.623016,365.129822 453.435089,368.570953 
	C459.065857,392.431244 464.861267,416.252686 470.885254,441.254517 
	C474.630157,425.000641 478.124176,409.865540 481.602692,394.726929 
	C483.646729,385.831329 485.729004,376.943726 487.662231,368.023926 
	C488.330750,364.939362 489.808441,363.526245 493.110077,363.626831 
	C499.236664,363.813416 505.372986,363.680298 511.971924,363.680298 
	C511.610992,370.615875 509.379517,376.510132 507.841919,382.505585 
	C500.415314,411.463379 492.739655,440.357483 485.384186,469.333038 
	C484.294922,473.624084 482.576538,475.542908 477.995239,475.130585 
	C473.697449,474.743835 469.330841,474.890259 465.007629,475.088226 
	C461.245575,475.260529 459.412842,473.970337 458.455780,470.060059 
	C453.362610,449.251831 447.962616,428.518646 442.648529,407.764679 
	C442.203033,406.024872 441.607513,404.323486 440.897491,402.001770 
	C439.263000,403.968933 438.721191,405.693756 438.234100,407.589783 
	C432.944031,428.181976 427.473450,448.728271 422.291656,469.347351 
	C421.222961,473.599701 419.421539,475.607727 414.825562,475.167389 
	C410.862366,474.787628 406.799408,474.743683 402.844513,475.159393 
	C397.827118,475.686768 395.896210,473.505402 394.708344,468.847870 
	C386.170959,435.374390 377.393555,401.962158 368.621918,368.115479 
z"/>
<path fill="#000000" opacity="1.000000" stroke="none" 
	d="
M370.890411,514.764954 
	C387.366943,521.695496 393.863007,533.367310 392.294067,552.648987 
	C391.170074,566.462769 380.071808,578.528809 364.929291,582.256165 
	C357.425873,584.103210 349.696472,583.620483 342.075012,583.931396 
	C337.645233,584.112122 335.810730,585.229980 335.956482,589.924744 
	C336.240814,599.082214 335.929565,608.256714 336.072296,617.420898 
	C336.127808,620.986633 335.000763,622.622009 331.205719,622.431335 
	C326.550781,622.197449 321.872406,622.275330 317.209564,622.407776 
	C314.144958,622.494812 312.657928,621.551453 312.665527,618.174377 
	C312.742401,584.007996 312.726196,549.841431 312.698456,515.674866 
	C312.696350,513.066772 313.516602,511.561554 316.403229,511.648163 
	C331.867432,512.112061 347.382111,510.496277 362.798645,512.707214 
	C365.408630,513.081543 367.941711,513.992249 370.890411,514.764954 
M336.037048,541.534058 
	C336.050049,548.183289 336.117706,554.833069 336.050659,561.481506 
	C336.021606,564.364746 337.059723,565.788147 340.134521,565.675415 
	C344.118835,565.529297 348.118286,565.773682 352.100769,565.604004 
	C362.061768,565.179749 368.660706,559.189819 369.603302,549.898560 
	C370.540009,540.665344 365.142975,533.601501 355.489807,531.055664 
	C352.348053,530.226990 349.224579,530.372437 346.088287,530.391174 
	C335.312103,530.455505 336.051178,528.610535 336.037048,541.534058 
z"/>
<path fill="#000000" opacity="1.000000" stroke="none" 
	d="
M593.974854,499.268768 
	C594.888245,496.185699 594.753357,493.247070 596.424133,490.637329 
	C598.502380,490.637329 600.640625,490.662201 602.778076,490.633118 
	C613.156738,490.492004 619.374207,481.603851 615.928894,471.888641 
	C607.149109,447.131287 598.381836,422.369476 589.623474,397.604523 
	C589.136047,396.226227 588.197510,394.914154 589.000183,392.718506 
	C595.853394,392.718506 602.932678,392.644714 610.009033,392.756561 
	C612.663574,392.798492 612.764832,395.242462 613.334656,397.081970 
	C617.905518,411.836182 622.452820,426.597626 627.013611,441.354980 
	C627.491028,442.899750 627.542114,444.663849 629.401062,445.863037 
	C631.226746,443.868835 631.751221,441.248840 632.591736,438.865234 
	C637.455872,425.070282 642.292969,411.264404 646.947937,397.397980 
	C648.134644,393.863220 649.962585,392.345581 653.806091,392.553009 
	C659.421814,392.856049 665.066101,392.630920 670.352905,392.630920 
	C671.417847,393.992432 671.076233,394.924072 670.718506,395.878174 
	C658.868469,427.485291 647.088989,459.119049 635.144531,490.690430 
	C630.821167,502.117737 621.518799,508.416443 609.356873,508.347168 
	C603.963135,508.316467 598.364868,509.471100 592.974609,506.470367 
	C593.270630,504.200378 593.565552,501.938812 593.974854,499.268768 
z"/>
<path fill="#000000" opacity="1.000000" stroke="none" 
	d="
M548.216248,475.844635 
	C540.645935,476.725525 533.538391,476.912476 526.680481,474.132050 
	C517.195251,470.286469 511.725952,462.283203 511.659088,452.088959 
	C511.586792,441.065918 517.084595,431.963379 526.425781,428.134552 
	C534.839111,424.686035 543.651184,423.426453 552.752991,423.517975 
	C555.356750,423.544128 559.070740,425.441986 560.504272,421.277222 
	C561.703735,417.792236 559.276123,411.987549 556.015808,409.864288 
	C549.380005,405.542786 538.591919,408.194794 535.437378,415.454865 
	C533.882812,419.032593 531.808594,419.966217 528.559265,419.138641 
	C524.226013,418.035034 519.533447,418.945923 514.904785,416.468201 
	C516.528320,406.854492 521.162048,399.134583 530.124390,394.780609 
	C543.157776,388.448883 556.539185,388.750275 569.596436,394.749542 
	C576.997864,398.150146 580.366882,404.616516 581.403687,412.623749 
	C582.736389,422.916138 582.115112,433.226562 582.250610,443.529816 
	C582.364441,452.186523 582.094971,460.853760 582.424133,469.500000 
	C582.596802,474.034210 580.810974,475.520752 576.605591,475.107849 
	C574.955994,474.945892 573.276794,475.113892 571.613464,475.058685 
	C567.198486,474.912079 561.615295,476.815735 562.023071,468.157928 
	C557.193542,471.653381 553.539307,474.924042 548.216248,475.844635 
M559.606934,438.721313 
	C552.297913,437.880920 544.992310,437.299622 538.328735,441.370270 
	C534.583557,443.658203 532.594055,447.155212 533.553223,451.505493 
	C534.511597,455.851929 537.783081,458.082642 542.142822,458.674500 
	C555.491211,460.486664 562.271057,453.209961 559.606934,438.721313 
z"/>
<path fill="#000000" opacity="1.000000" stroke="none" 
	d="
M501.086060,623.510193 
	C475.536713,629.167297 453.782959,611.934875 453.663239,586.318848 
	C453.633759,580.011719 453.325531,573.708313 454.748810,567.442505 
	C458.560059,550.663452 475.072723,539.730225 490.365936,539.350464 
	C515.178711,538.734436 530.904846,558.058167 528.397095,584.006470 
	C528.057495,587.519287 525.948242,587.374939 523.559204,587.374756 
	C509.400604,587.373840 495.242035,587.364319 481.083435,587.379822 
	C475.136627,587.386292 474.470245,588.421204 475.988098,594.180969 
	C477.857300,601.274048 482.518280,605.492188 489.534821,606.442566 
	C496.226929,607.348999 502.155670,605.275635 505.641602,598.913818 
	C506.948975,596.527832 508.636475,595.727478 511.261322,595.795593 
	C516.565308,595.933105 521.848206,596.099243 527.026672,597.118835 
	C527.476501,608.280823 515.625488,620.388794 501.086060,623.510193 
M503.492981,562.067871 
	C499.204773,556.563904 493.368103,555.162842 487.007019,556.733459 
	C480.798157,558.266479 477.598389,562.938904 476.069702,569.061707 
	C475.120667,572.862976 476.403778,573.970398 479.964966,573.530090 
	C486.742798,572.691956 493.553711,573.047363 500.346405,573.160889 
	C506.926849,573.270813 507.921997,572.008484 505.476746,565.778992 
	C505.055908,564.706970 504.415802,563.721008 503.492981,562.067871 
z"/>
<path fill="#000000" opacity="1.000000" stroke="none" 
	d="
M843.256897,552.806763 
	C854.510498,568.080383 855.533569,590.524597 846.143921,606.359436 
	C837.274902,621.316345 819.963623,625.802551 807.497131,623.910706 
	C788.524597,621.031555 777.155457,610.668457 773.788940,593.401184 
	C771.053101,579.368713 772.445679,565.874939 780.969971,553.838928 
	C794.474976,534.770447 828.562683,534.757202 843.256897,552.806763 
M826.032715,598.418701 
	C830.813965,589.004944 830.863892,579.120667 828.180115,569.273315 
	C825.775818,560.451599 819.882141,556.813904 810.523865,557.317017 
	C803.627747,557.687683 798.233887,562.910461 796.344788,570.659241 
	C794.979065,576.261108 794.894104,581.963989 795.540161,587.533081 
	C796.444702,595.331055 798.852600,602.659241 807.401855,605.601807 
	C815.180176,608.278931 820.979919,605.181702 826.032715,598.418701 
z"/>
<path fill="#000000" opacity="1.000000" stroke="none" 
	d="
M885.350830,604.998535 
	C885.341492,609.827942 885.259338,614.159058 885.348755,618.486633 
	C885.404968,621.205383 884.323364,622.445374 881.539185,622.388794 
	C876.711975,622.290710 871.881653,622.321960 867.052856,622.343811 
	C864.812622,622.353943 863.682373,621.398865 863.683960,619.074097 
	C863.701050,593.460449 863.694763,567.846741 863.694763,541.984070 
	C870.505737,541.031616 876.996948,542.398315 883.034851,541.020630 
	C884.759827,541.902954 883.908508,543.703613 884.930176,544.601257 
	C886.282898,545.062622 887.187988,544.093872 888.175964,543.595825 
	C898.392456,538.445679 909.001343,538.020264 919.623230,541.681580 
	C931.874878,545.904602 935.622925,556.412598 936.104980,567.797058 
	C936.815979,584.586487 936.273193,601.427612 936.358826,618.246216 
	C936.373840,621.197998 935.328003,622.504639 932.285583,622.404175 
	C928.127136,622.266724 923.951111,622.206116 919.800110,622.432861 
	C915.958862,622.642700 914.520996,621.290588 914.580200,617.300110 
	C914.778015,603.980896 914.658630,590.656982 914.641968,577.334839 
	C914.639893,575.672546 914.689575,573.984802 914.435608,572.352356 
	C912.867188,562.269409 908.583679,558.778687 898.597473,559.323181 
	C890.696533,559.754028 885.511536,565.572266 885.388611,574.524597 
	C885.251343,584.514282 885.352905,594.507263 885.350830,604.998535 
z"/>
<path fill="#000000" opacity="1.000000" stroke="none" 
	d="
M679.617371,599.283264 
	C684.590149,607.551758 694.491577,609.989197 702.284485,605.172119 
	C704.856323,603.582336 706.652710,601.301575 706.468994,598.252686 
	C706.256836,594.730591 703.825012,592.582336 700.653870,591.442322 
	C694.040894,589.064880 686.964233,588.980347 680.159729,587.458618 
	C666.934937,584.501160 661.022278,578.983704 659.794617,567.671021 
	C658.691406,557.505676 664.771423,547.028748 675.483276,542.797791 
	C689.904785,537.101501 704.144897,537.721130 717.279785,546.832458 
	C722.144714,550.207092 724.838623,555.172729 726.070435,560.905823 
	C726.472595,562.777588 726.520325,564.808289 723.961487,565.144836 
	C717.898682,565.942200 711.815491,566.584106 705.854553,567.275574 
	C701.942566,557.796753 694.516785,554.090027 686.278442,557.164673 
	C683.245850,558.296509 680.786987,560.144348 680.832153,563.545593 
	C680.875366,566.797180 683.459045,568.607849 686.294373,569.320618 
	C692.728394,570.938110 699.252502,572.196533 705.735046,573.622864 
	C707.193481,573.943726 708.660706,574.268250 710.075378,574.737305 
	C718.036194,577.376221 725.818359,580.597412 727.174683,590.166077 
	C728.810059,601.703613 726.051697,612.087463 715.239929,618.147461 
	C700.776794,626.254089 685.647766,626.529663 670.809082,619.045715 
	C663.857239,615.539490 660.326599,609.027588 658.825684,601.494141 
	C658.257385,598.641418 658.939331,596.764709 662.478821,596.503906 
	C666.600037,596.200378 670.685303,595.353455 674.772705,594.662659 
	C678.219238,594.080078 679.760803,595.475037 679.617371,599.283264 
z"/>
<path fill="#000000" opacity="1.000000" stroke="none" 
	d="
M607.068359,552.015076 
	C610.250549,556.244080 611.863342,560.740662 612.956848,565.496948 
	C613.697083,568.716675 612.635376,570.304565 609.302734,570.329590 
	C605.310486,570.359558 601.315735,570.265930 597.375610,571.173645 
	C594.959656,571.730225 593.746460,570.324951 592.897156,568.249939 
	C589.892761,560.909912 584.411560,556.532471 576.467529,556.709167 
	C569.641418,556.861023 563.380493,563.439880 561.868469,571.801636 
	C560.627075,578.666748 560.476685,585.725952 562.274353,592.599304 
	C564.155945,599.794250 570.003662,605.058533 576.416260,605.630615 
	C584.069641,606.313354 589.004333,603.567017 592.595154,595.874695 
	C593.905518,593.067566 595.457031,592.405884 598.309631,592.557129 
	C601.805969,592.742493 605.278015,593.459534 608.715576,593.474182 
	C613.615234,593.495056 613.860657,596.169189 613.090271,599.627747 
	C611.672302,605.993225 608.469727,611.399780 603.449951,615.585693 
	C584.671875,631.244324 547.524902,626.874023 539.925476,594.531189 
	C536.907410,581.686646 537.469421,568.706299 544.485535,556.809814 
	C557.419006,534.879761 591.900024,534.114746 607.068359,552.015076 
z"/>
<path fill="#000000" opacity="1.000000" stroke="none" 
	d="
M450.250854,552.961548 
	C450.020233,556.208984 450.833008,559.073853 449.488495,561.863525 
	C445.652100,561.993164 442.028503,560.488708 438.148529,561.003357 
	C427.480469,562.418579 423.523376,566.454956 423.394501,577.255493 
	C423.239716,590.228333 423.352448,603.204346 423.349487,616.179016 
	C423.349060,617.979126 423.349426,619.779297 423.349426,622.264587 
	C416.654022,622.264587 410.405273,622.290771 404.157013,622.249207 
	C402.187225,622.236145 401.705444,620.827759 401.704956,619.180725 
	C401.697205,593.587952 401.699554,567.995239 401.699554,541.903748 
	C408.486450,541.903748 414.896332,541.903748 421.909760,541.903748 
	C423.003540,542.685608 421.879944,544.635620 422.703552,546.394836 
	C428.119598,542.785522 433.896851,540.030579 440.473999,539.686218 
	C448.989227,539.240479 450.210388,540.475159 450.240234,548.983337 
	C450.244324,550.147766 450.246033,551.312134 450.250854,552.961548 
z"/>
<path fill="#000000" opacity="1.000000" stroke="none" 
	d="
M625.652466,548.075439 
	C625.730774,540.727112 625.730774,540.723816 632.488892,540.698669 
	C635.816956,540.686279 639.168091,540.934387 642.467407,540.624023 
	C646.989990,540.198730 648.161377,542.213135 648.137817,546.413147 
	C648.005615,570.041382 648.008179,593.671021 648.139832,617.299255 
	C648.161804,621.234741 646.782532,622.663757 642.911438,622.430847 
	C638.932190,622.191711 634.910889,622.153259 630.938110,622.441833 
	C626.703430,622.749512 625.567078,620.984924 625.592407,616.957214 
	C625.735352,594.161011 625.656128,571.363342 625.652466,548.075439 
z"/>
<path fill="#000000" opacity="1.000000" stroke="none" 
	d="
M748.985962,622.388794 
	C737.239746,622.262573 738.715881,623.518555 738.678467,612.493286 
	C738.603943,590.503052 738.771057,568.511292 738.559204,546.522827 
	C738.514648,541.903503 739.975281,540.269592 744.531128,540.622986 
	C748.671204,540.944214 752.855957,540.728455 757.020325,540.682861 
	C759.379883,540.657043 760.751709,541.340698 760.736328,544.085632 
	C760.595459,569.222168 760.536255,594.359070 760.432190,619.495850 
	C760.428894,620.291504 760.198792,621.086243 759.995056,622.388794 
	C756.405457,622.388794 752.938843,622.388794 748.985962,622.388794 
z"/>
<path fill="#000000" opacity="1.000000" stroke="none" 
	d="
M754.127686,530.834290 
	C742.773682,532.262878 737.581665,528.352478 737.654480,518.886475 
	C737.704163,512.429138 740.804321,508.406647 746.836182,506.973083 
	C752.122559,505.716736 757.896851,508.320831 760.347778,513.066589 
	C763.185059,518.560547 762.225464,524.765747 757.860962,528.523499 
	C756.866882,529.379333 755.634094,529.957886 754.127686,530.834290 
z"/>
<path fill="#000000" opacity="1.000000" stroke="none" 
	d="
M648.071289,513.431763 
	C651.228760,522.560852 647.230774,530.487183 639.407471,531.309692 
	C631.740906,532.115723 627.373352,529.404907 625.348938,522.583923 
	C623.588562,516.652527 626.216003,510.460663 631.577515,507.905334 
	C637.468506,505.097595 643.627075,507.041840 648.071289,513.431763 
z"/>
<path fill="#000000" opacity="1.000000" stroke="none" 
	d="
M230.351929,379.292847 
	C246.947998,383.428772 257.011810,393.920013 261.722198,409.551117 
	C266.161530,424.282654 262.104279,437.075409 251.544296,447.973907 
	C243.041031,456.749725 232.119934,462.541260 223.219650,470.837006 
	C221.535126,472.407104 219.971222,471.636627 218.340652,470.397339 
	C210.924103,464.760406 203.410919,459.250732 195.987076,453.623260 
	C180.488159,441.874664 174.736099,425.831024 179.729050,408.465424 
	C184.747803,391.010101 199.267929,379.405365 218.114563,377.803772 
	C222.148056,377.461029 226.044571,378.403717 230.351929,379.292847 
z"/>
</svg>