<svg id="svg" version="1.1" xmlns="http://www.w3.org/2000/svg" xmlns:xlink="http://www.w3.org/1999/xlink" width="400" height="430.6666666666667" viewBox="0, 0, 400,430.6666666666667"><g id="svgg">
<path id="path0" d="M189.600 31.263 C 188.830 31.472,186.457 31.801,184.327 31.993 C 182.197 32.186,180.081 32.543,179.625 32.787 C 179.169 33.031,177.582 33.339,176.098 33.471 C 174.614 33.603,172.914 33.956,172.320 34.256 C 171.726 34.555,170.635 34.800,169.896 34.800 C 169.157 34.800,168.204 35.064,167.776 35.387 C 167.349 35.710,166.457 35.980,165.794 35.987 C 165.131 35.994,163.916 36.360,163.096 36.800 C 162.275 37.240,161.187 37.600,160.678 37.600 C 160.169 37.600,159.404 37.864,158.976 38.187 C 158.549 38.510,157.794 38.780,157.299 38.787 C 156.803 38.794,155.725 39.160,154.904 39.600 C 154.084 40.040,153.199 40.400,152.938 40.400 C 152.678 40.400,151.955 40.661,151.332 40.979 C 148.659 42.347,144.068 44.400,143.684 44.400 C 143.455 44.400,143.207 44.542,143.133 44.714 C 143.060 44.887,141.764 45.639,140.253 46.384 C 138.742 47.130,136.889 48.158,136.135 48.670 C 135.381 49.181,134.522 49.600,134.225 49.600 C 133.928 49.600,133.596 49.825,133.487 50.100 C 133.377 50.375,132.593 50.955,131.744 51.390 C 130.895 51.824,129.461 52.769,128.559 53.490 C 127.656 54.210,126.756 54.801,126.559 54.802 C 126.361 54.803,125.660 55.298,125.000 55.902 C 124.340 56.506,123.003 57.540,122.030 58.200 C 117.894 61.003,105.102 73.854,102.047 78.273 C 101.471 79.106,100.587 80.241,100.082 80.794 C 99.577 81.347,98.772 82.430,98.294 83.200 C 97.817 83.970,96.835 85.379,96.113 86.331 C 95.391 87.282,94.800 88.323,94.800 88.643 C 94.800 88.963,94.530 89.329,94.200 89.455 C 93.870 89.582,93.600 89.905,93.600 90.172 C 93.600 90.440,92.970 91.545,92.200 92.628 C 91.430 93.711,90.800 94.894,90.800 95.256 C 90.800 95.618,90.530 96.018,90.200 96.145 C 89.870 96.271,89.600 96.728,89.600 97.159 C 89.600 97.590,89.330 98.213,89.000 98.543 C 88.670 98.873,88.399 99.381,88.397 99.671 C 88.396 99.962,88.037 100.740,87.600 101.400 C 87.163 102.060,86.804 102.893,86.803 103.251 C 86.801 103.609,86.530 104.126,86.200 104.400 C 85.870 104.674,85.600 105.237,85.600 105.650 C 85.600 106.064,85.240 107.075,84.800 107.896 C 84.360 108.716,83.994 109.661,83.987 109.994 C 83.980 110.327,83.710 110.949,83.387 111.376 C 83.064 111.804,82.800 112.624,82.800 113.200 C 82.800 113.776,82.536 114.596,82.213 115.024 C 81.890 115.451,81.619 116.340,81.610 117.000 C 81.602 117.660,81.351 118.669,81.052 119.241 C 80.753 119.814,80.377 121.161,80.216 122.236 C 80.054 123.310,79.670 124.678,79.361 125.275 C 79.053 125.872,78.800 127.067,78.800 127.931 C 78.800 128.795,78.530 130.149,78.200 130.938 C 77.870 131.728,77.597 133.505,77.593 134.887 C 77.589 136.269,77.319 138.660,76.993 140.200 C 76.170 144.084,76.175 163.451,77.000 167.200 C 77.315 168.630,77.585 171.330,77.600 173.200 C 77.618 175.367,77.836 176.963,78.200 177.600 C 78.514 178.150,78.778 179.269,78.786 180.086 C 78.794 180.903,79.052 182.343,79.360 183.286 C 79.668 184.229,80.045 185.894,80.197 186.986 C 80.350 188.078,80.728 189.333,81.037 189.775 C 81.347 190.217,81.606 191.123,81.613 191.789 C 81.620 192.455,81.890 193.349,82.213 193.776 C 82.536 194.204,82.801 195.014,82.802 195.576 C 82.804 196.139,83.074 197.116,83.402 197.746 C 83.731 198.376,84.006 199.096,84.014 199.346 C 84.021 199.596,84.375 200.520,84.800 201.400 C 85.225 202.280,85.579 203.328,85.586 203.729 C 85.594 204.129,85.870 204.727,86.200 205.057 C 86.530 205.387,86.800 206.072,86.800 206.580 C 86.800 207.087,87.065 207.722,87.389 207.991 C 87.714 208.260,88.092 209.086,88.231 209.826 C 88.370 210.566,88.735 211.380,89.042 211.635 C 89.349 211.890,89.600 212.507,89.600 213.006 C 89.600 213.506,89.870 214.018,90.200 214.145 C 90.530 214.271,90.800 214.646,90.800 214.977 C 90.800 215.309,91.430 216.747,92.200 218.173 C 92.970 219.599,93.600 221.043,93.600 221.383 C 93.600 221.722,93.767 222.000,93.971 222.000 C 94.175 222.000,94.827 223.024,95.419 224.276 C 96.011 225.529,96.744 226.801,97.048 227.105 C 97.352 227.409,97.600 227.892,97.600 228.180 C 97.600 228.467,97.870 228.926,98.200 229.200 C 98.530 229.474,98.800 229.977,98.800 230.317 C 98.800 230.658,99.085 231.252,99.433 231.637 C 100.141 232.419,101.718 235.124,102.619 237.100 C 102.944 237.815,103.347 238.400,103.514 238.400 C 103.680 238.400,104.263 239.255,104.808 240.300 C 105.354 241.345,106.025 242.344,106.300 242.520 C 106.575 242.696,106.800 243.013,106.800 243.224 C 106.800 243.435,107.385 244.470,108.100 245.524 C 108.815 246.578,109.580 247.737,109.800 248.100 C 110.020 248.463,110.965 249.855,111.900 251.193 C 112.835 252.531,113.600 253.706,113.600 253.805 C 113.600 253.903,114.500 255.287,115.600 256.878 C 116.700 258.470,117.600 259.914,117.600 260.086 C 117.600 260.259,117.915 260.747,118.300 261.171 C 119.412 262.396,119.823 262.957,120.081 263.600 C 120.420 264.443,125.399 272.052,126.166 272.900 C 126.515 273.285,126.800 273.766,126.800 273.969 C 126.800 274.173,127.394 275.118,128.121 276.069 C 129.334 277.659,130.639 279.623,134.850 286.200 C 136.719 289.119,137.198 289.828,138.100 291.009 C 138.485 291.514,138.800 292.035,138.800 292.167 C 138.800 292.435,141.395 296.241,142.253 297.231 C 142.554 297.579,142.800 298.104,142.800 298.398 C 142.800 298.692,143.078 299.218,143.418 299.566 C 144.288 300.459,147.506 305.214,147.995 306.330 C 148.220 306.842,148.627 307.495,148.902 307.782 C 149.176 308.069,149.940 309.170,150.600 310.229 C 151.260 311.288,152.113 312.615,152.496 313.177 C 152.878 313.740,153.314 314.456,153.465 314.769 C 153.616 315.083,153.991 315.623,154.299 315.969 C 155.199 316.983,161.600 326.878,161.600 327.256 C 161.600 327.445,161.789 327.600,162.021 327.600 C 162.252 327.600,162.630 328.140,162.860 328.800 C 163.090 329.460,163.441 330.000,163.639 330.000 C 163.838 330.000,164.000 330.242,164.000 330.538 C 164.000 330.834,164.360 331.402,164.800 331.800 C 165.240 332.198,165.600 332.683,165.600 332.878 C 165.600 333.188,167.048 335.448,167.600 336.000 C 167.710 336.110,168.070 336.690,168.400 337.289 C 169.208 338.755,175.255 347.665,175.892 348.329 C 176.172 348.619,176.400 349.032,176.400 349.245 C 176.400 349.671,177.015 350.493,178.100 351.517 C 178.485 351.880,178.800 352.395,178.800 352.660 C 178.800 352.926,179.025 353.386,179.300 353.682 C 180.048 354.489,181.600 356.733,181.600 357.008 C 181.600 357.140,182.230 358.073,183.000 359.082 C 183.770 360.090,184.400 361.077,184.400 361.274 C 184.400 361.673,185.037 362.514,186.100 363.517 C 186.485 363.880,186.800 364.394,186.800 364.658 C 186.800 364.923,187.430 365.964,188.200 366.973 C 188.970 367.982,189.600 368.906,189.600 369.027 C 189.600 369.149,190.230 370.073,191.000 371.082 C 191.770 372.090,192.400 373.058,192.400 373.233 C 192.400 373.408,192.940 374.142,193.600 374.864 C 194.260 375.587,194.800 376.395,194.800 376.661 C 194.800 376.926,195.025 377.386,195.300 377.682 C 196.138 378.586,197.600 380.748,197.600 381.084 C 197.600 381.258,198.230 382.108,199.000 382.973 C 199.770 383.838,200.400 384.700,200.400 384.889 C 200.400 385.582,202.169 387.600,202.775 387.598 C 203.344 387.596,206.117 383.967,207.600 381.285 C 207.930 380.688,208.290 380.110,208.400 380.000 C 208.853 379.547,210.400 377.214,210.400 376.984 C 210.400 376.847,210.985 375.984,211.700 375.067 C 212.415 374.150,213.180 373.094,213.400 372.720 C 213.620 372.346,214.565 370.945,215.500 369.607 C 216.435 368.269,217.200 367.020,217.200 366.830 C 217.200 366.641,217.470 366.382,217.800 366.255 C 218.130 366.129,218.400 365.855,218.400 365.648 C 218.400 365.303,219.886 363.051,225.117 355.472 C 226.153 353.971,227.180 352.433,227.400 352.052 C 227.620 351.672,228.385 350.624,229.100 349.723 C 229.815 348.822,230.400 347.922,230.400 347.724 C 230.400 347.525,230.673 347.011,231.007 346.581 C 232.300 344.917,235.206 340.558,235.569 339.739 C 235.779 339.265,236.153 338.753,236.400 338.600 C 236.647 338.447,237.021 337.935,237.231 337.461 C 237.652 336.509,238.076 335.853,241.000 331.634 C 242.100 330.047,243.252 328.265,243.560 327.674 C 243.869 327.083,244.364 326.456,244.660 326.280 C 244.957 326.104,245.200 325.782,245.200 325.564 C 245.200 325.222,246.613 322.987,247.200 322.400 C 247.663 321.937,249.200 319.611,249.200 319.374 C 249.200 319.232,249.716 318.459,250.347 317.658 C 250.977 316.856,251.619 315.795,251.774 315.300 C 251.928 314.805,252.226 314.400,252.437 314.400 C 252.647 314.400,253.003 313.995,253.227 313.500 C 253.870 312.079,254.616 310.867,255.336 310.071 C 255.701 309.667,256.000 309.197,256.000 309.026 C 256.000 308.855,256.516 308.059,257.147 307.258 C 257.777 306.456,258.411 305.421,258.555 304.958 C 258.699 304.495,259.348 303.595,259.997 302.958 C 260.647 302.321,261.183 301.564,261.189 301.276 C 261.195 300.988,261.830 299.927,262.600 298.918 C 263.370 297.910,264.000 296.923,264.000 296.726 C 264.000 296.363,264.418 295.783,265.700 294.371 C 266.085 293.947,266.400 293.446,266.400 293.258 C 266.400 293.069,266.985 292.119,267.700 291.146 C 268.415 290.174,269.180 289.077,269.400 288.709 C 269.620 288.341,270.565 286.945,271.500 285.607 C 272.435 284.269,273.200 283.001,273.200 282.787 C 273.200 282.574,273.384 282.400,273.610 282.400 C 273.835 282.400,274.187 281.960,274.392 281.421 C 274.596 280.883,275.312 279.686,275.982 278.761 C 276.652 277.837,277.200 276.927,277.200 276.740 C 277.200 276.553,277.489 276.085,277.841 275.700 C 278.194 275.315,279.453 273.470,280.639 271.600 C 281.824 269.730,283.066 267.848,283.397 267.419 C 283.729 266.989,284.000 266.475,284.000 266.276 C 284.000 266.078,284.512 265.259,285.138 264.458 C 285.764 263.656,286.762 262.190,287.355 261.200 C 287.949 260.210,288.652 259.041,288.917 258.602 C 289.183 258.162,289.895 257.147,290.500 256.344 C 291.105 255.541,291.600 254.718,291.600 254.515 C 291.600 254.312,292.230 253.438,293.000 252.573 C 293.770 251.708,294.400 250.847,294.400 250.659 C 294.400 250.362,298.283 244.235,300.448 241.116 C 300.862 240.520,301.200 239.764,301.200 239.436 C 301.200 239.108,301.425 238.696,301.700 238.520 C 302.312 238.128,303.071 236.956,303.634 235.532 C 303.866 234.945,304.313 234.365,304.628 234.245 C 304.943 234.124,305.200 233.758,305.200 233.433 C 305.200 232.899,306.359 230.931,308.449 227.916 C 308.862 227.320,309.200 226.658,309.200 226.445 C 309.200 226.232,309.429 225.819,309.709 225.529 C 309.989 225.238,311.264 222.930,312.542 220.400 C 313.820 217.870,315.019 215.530,315.208 215.200 C 315.552 214.598,316.878 211.646,317.814 209.400 C 318.089 208.740,318.693 207.370,319.157 206.356 C 319.621 205.342,320.000 204.149,320.000 203.705 C 320.000 203.261,320.270 202.674,320.600 202.400 C 320.930 202.126,321.200 201.316,321.200 200.600 C 321.200 199.884,321.470 199.074,321.800 198.800 C 322.130 198.526,322.400 197.734,322.400 197.040 C 322.400 196.346,322.643 195.423,322.941 194.989 C 323.238 194.555,323.597 193.459,323.737 192.553 C 323.878 191.647,324.263 190.387,324.594 189.753 C 324.924 189.119,325.196 187.779,325.198 186.776 C 325.199 185.774,325.464 184.604,325.787 184.176 C 326.110 183.749,326.385 182.680,326.397 181.800 C 326.409 180.920,326.613 179.480,326.851 178.600 C 327.318 176.868,328.110 169.010,328.798 159.279 C 329.153 154.243,329.125 152.506,328.640 149.479 C 328.316 147.456,327.936 143.851,327.796 141.468 C 327.657 139.086,327.285 136.409,326.971 135.518 C 326.657 134.628,326.394 132.887,326.386 131.650 C 326.378 130.412,326.114 128.950,325.800 128.400 C 325.486 127.850,325.221 126.680,325.212 125.800 C 325.203 124.920,324.931 123.693,324.608 123.074 C 324.285 122.455,323.897 121.019,323.747 119.882 C 323.596 118.745,323.231 117.574,322.936 117.279 C 322.641 116.984,322.400 116.148,322.400 115.420 C 322.400 114.693,322.130 113.874,321.800 113.600 C 321.470 113.326,321.194 112.719,321.186 112.251 C 321.179 111.783,320.825 110.680,320.400 109.800 C 319.975 108.920,319.621 107.962,319.614 107.671 C 319.606 107.381,319.330 106.873,319.000 106.543 C 318.670 106.213,318.400 105.528,318.400 105.020 C 318.400 104.513,318.130 103.874,317.800 103.600 C 317.470 103.326,317.200 102.864,317.200 102.573 C 317.200 101.979,314.196 96.036,313.590 95.430 C 313.375 95.215,313.200 94.710,313.200 94.307 C 313.200 93.905,312.941 93.476,312.624 93.354 C 312.308 93.233,311.934 92.608,311.793 91.967 C 311.652 91.325,311.366 90.800,311.158 90.800 C 310.950 90.800,310.606 90.341,310.393 89.781 C 310.180 89.220,309.194 87.601,308.203 86.183 C 307.211 84.764,306.400 83.423,306.400 83.202 C 306.400 82.981,306.237 82.800,306.038 82.800 C 305.839 82.800,305.221 82.035,304.664 81.100 C 304.107 80.165,303.168 78.889,302.577 78.265 C 301.986 77.641,300.469 75.841,299.206 74.265 C 296.035 70.311,289.167 63.406,285.800 60.788 C 284.260 59.591,282.820 58.403,282.600 58.149 C 282.380 57.895,280.850 56.731,279.200 55.563 C 276.667 53.770,274.879 52.555,269.200 48.771 C 268.208 48.110,267.065 47.510,262.122 45.055 C 259.525 43.766,257.130 42.550,256.800 42.353 C 256.470 42.156,255.930 41.897,255.600 41.777 C 255.270 41.657,254.490 41.298,253.868 40.980 C 253.245 40.661,252.525 40.394,252.268 40.386 C 252.010 40.379,251.080 40.025,250.200 39.600 C 249.320 39.175,248.217 38.821,247.749 38.814 C 247.281 38.806,246.674 38.530,246.400 38.200 C 246.126 37.870,245.383 37.600,244.750 37.600 C 244.116 37.600,242.925 37.240,242.104 36.800 C 241.284 36.360,240.226 36.000,239.755 36.000 C 239.283 36.000,238.251 35.730,237.462 35.400 C 236.672 35.070,235.435 34.794,234.713 34.786 C 233.991 34.778,232.950 34.514,232.400 34.200 C 231.850 33.886,230.590 33.614,229.600 33.597 C 228.610 33.579,227.087 33.311,226.215 33.000 C 225.343 32.690,222.913 32.320,220.815 32.179 C 218.717 32.037,215.984 31.669,214.742 31.361 C 212.099 30.704,191.943 30.625,189.600 31.263 M212.787 76.558 C 213.990 76.911,215.700 77.206,216.587 77.213 C 217.474 77.220,218.549 77.490,218.976 77.813 C 219.404 78.136,220.494 78.400,221.400 78.400 C 222.306 78.400,223.396 78.664,223.824 78.987 C 224.251 79.310,225.015 79.580,225.522 79.587 C 226.418 79.600,229.033 80.598,231.332 81.805 C 231.955 82.132,232.788 82.400,233.183 82.400 C 233.579 82.400,234.126 82.670,234.400 83.000 C 234.674 83.330,235.212 83.600,235.595 83.600 C 235.978 83.600,236.750 83.960,237.309 84.400 C 237.869 84.840,238.514 85.200,238.743 85.200 C 238.972 85.200,239.934 85.717,240.880 86.350 C 241.826 86.982,243.005 87.624,243.500 87.777 C 243.995 87.929,244.400 88.222,244.400 88.427 C 244.400 88.632,244.637 88.800,244.928 88.800 C 245.218 88.800,246.370 89.475,247.488 90.300 C 248.606 91.125,249.913 92.070,250.392 92.400 C 252.002 93.510,255.369 96.573,259.403 100.600 C 263.693 104.881,264.568 105.863,266.888 108.993 C 267.706 110.097,268.518 111.180,268.691 111.400 C 269.546 112.485,271.357 115.374,272.202 117.000 C 272.545 117.660,273.178 118.740,273.608 119.400 C 274.039 120.060,274.503 120.870,274.639 121.200 C 274.775 121.530,275.497 123.020,276.243 124.510 C 276.990 126.001,277.600 127.554,277.600 127.961 C 277.600 128.369,277.870 128.926,278.200 129.200 C 278.530 129.474,278.800 130.176,278.800 130.760 C 278.800 131.344,279.055 132.186,279.367 132.631 C 279.679 133.077,280.064 134.135,280.223 134.983 C 280.382 135.832,280.756 136.992,281.054 137.563 C 281.352 138.133,281.603 139.140,281.612 139.800 C 281.621 140.460,281.886 141.450,282.200 142.000 C 282.514 142.550,282.778 143.732,282.786 144.627 C 282.794 145.522,283.094 147.232,283.454 148.427 C 284.429 151.663,284.443 167.942,283.473 170.087 C 283.103 170.905,282.800 172.440,282.800 173.498 C 282.800 174.556,282.553 175.777,282.252 176.211 C 281.951 176.645,281.610 177.630,281.495 178.400 C 281.277 179.850,280.392 182.474,279.382 184.660 C 279.062 185.354,278.800 186.198,278.800 186.537 C 278.800 186.876,278.631 187.257,278.425 187.384 C 278.219 187.512,277.567 188.647,276.975 189.908 C 276.384 191.169,275.383 192.974,274.750 193.920 C 274.118 194.866,273.600 195.774,273.600 195.939 C 273.600 196.227,272.959 197.125,271.500 198.880 C 271.115 199.343,270.800 199.925,270.800 200.172 C 270.800 200.419,270.305 201.167,269.700 201.834 C 269.095 202.501,268.096 203.778,267.480 204.673 C 266.864 205.568,265.874 206.850,265.280 207.521 C 264.686 208.192,263.930 209.139,263.600 209.626 C 262.965 210.563,261.278 212.706,260.603 213.434 C 260.381 213.672,259.390 214.823,258.400 215.991 C 254.566 220.515,252.899 222.375,248.173 227.400 C 245.483 230.260,242.769 233.229,242.141 233.997 C 240.538 235.960,231.676 244.778,227.464 248.600 C 225.525 250.360,222.107 253.574,219.869 255.742 C 217.631 257.910,214.491 260.739,212.892 262.028 C 209.655 264.636,206.947 267.045,204.716 269.300 C 202.804 271.233,202.334 271.192,200.074 268.897 C 199.043 267.850,197.691 266.667,197.069 266.267 C 196.058 265.618,189.700 260.209,189.200 259.573 C 189.090 259.433,187.995 258.504,186.766 257.508 C 181.567 253.296,160.555 232.402,153.800 224.728 C 152.700 223.479,150.900 221.431,149.800 220.177 C 148.700 218.923,147.613 217.695,147.385 217.449 C 147.157 217.202,145.905 215.650,144.602 214.000 C 143.299 212.350,142.021 210.820,141.762 210.600 C 141.503 210.380,140.610 209.210,139.777 208.000 C 138.944 206.790,138.053 205.620,137.797 205.400 C 136.958 204.678,134.400 201.326,134.400 200.948 C 134.400 200.744,134.085 200.280,133.700 199.917 C 132.405 198.695,132.241 198.414,128.048 190.261 C 126.482 187.214,125.200 184.419,125.200 184.050 C 125.200 183.680,124.945 183.014,124.633 182.569 C 124.321 182.123,123.937 181.048,123.780 180.180 C 123.622 179.311,123.247 178.114,122.947 177.520 C 122.646 176.926,122.398 175.756,122.396 174.920 C 122.393 174.084,122.123 172.516,121.796 171.436 C 121.090 169.111,120.965 150.615,121.634 147.600 C 121.854 146.610,122.179 144.411,122.356 142.714 C 122.534 141.017,122.861 139.397,123.084 139.114 C 123.308 138.831,123.597 137.652,123.727 136.493 C 123.857 135.335,124.242 133.990,124.582 133.504 C 124.922 133.019,125.200 131.964,125.200 131.160 C 125.200 130.348,125.467 129.476,125.800 129.200 C 126.130 128.926,126.400 128.363,126.400 127.950 C 126.400 127.536,126.760 126.525,127.200 125.704 C 127.640 124.884,128.000 123.916,128.000 123.555 C 128.000 123.194,128.270 122.674,128.600 122.400 C 128.930 122.126,129.200 121.468,129.200 120.938 C 129.200 120.409,129.470 119.871,129.800 119.745 C 130.130 119.618,130.400 119.184,130.400 118.781 C 130.400 118.377,130.598 117.925,130.841 117.775 C 131.083 117.625,131.549 116.939,131.876 116.251 C 133.050 113.779,133.394 113.200,133.689 113.200 C 133.854 113.200,134.238 112.615,134.542 111.900 C 134.845 111.185,135.568 110.096,136.147 109.479 C 136.726 108.863,137.200 108.252,137.200 108.121 C 137.200 107.173,148.401 95.459,151.000 93.690 C 152.911 92.388,153.422 92.001,154.319 91.170 C 154.694 90.823,155.720 90.113,156.600 89.591 C 157.480 89.069,158.290 88.543,158.400 88.421 C 158.997 87.762,161.247 86.400,161.741 86.400 C 162.056 86.400,162.412 86.147,162.530 85.838 C 162.649 85.528,163.298 85.154,163.973 85.006 C 164.648 84.858,165.200 84.574,165.200 84.376 C 165.200 84.178,165.693 83.891,166.296 83.740 C 166.899 83.589,167.632 83.225,167.925 82.933 C 168.218 82.640,168.782 82.400,169.180 82.400 C 169.577 82.400,170.126 82.130,170.400 81.800 C 170.674 81.470,171.237 81.200,171.650 81.200 C 172.064 81.200,173.075 80.840,173.896 80.400 C 174.716 79.960,175.846 79.600,176.405 79.600 C 176.964 79.600,177.777 79.352,178.211 79.050 C 178.645 78.747,179.720 78.412,180.600 78.304 C 181.480 78.196,182.740 77.915,183.400 77.679 C 184.060 77.443,185.770 77.052,187.200 76.810 C 188.630 76.567,190.610 76.211,191.600 76.019 C 194.679 75.420,210.263 75.817,212.787 76.558 " stroke="none" fill="#0a72b8" fill-rule="evenodd"></path>
<path id="path1" d="M193.600 102.753 C 191.950 102.913,190.207 103.259,189.726 103.522 C 189.246 103.785,188.300 104.000,187.625 104.000 C 186.950 104.000,185.725 104.360,184.904 104.800 C 184.084 105.240,183.026 105.600,182.555 105.600 C 182.084 105.600,181.474 105.870,181.200 106.200 C 180.926 106.530,180.356 106.800,179.934 106.800 C 179.128 106.800,174.253 109.279,173.169 110.240 C 172.821 110.548,172.409 110.800,172.252 110.800 C 171.994 110.800,169.683 112.315,169.200 112.801 C 169.090 112.912,168.280 113.493,167.400 114.092 C 163.900 116.477,155.922 125.648,154.815 128.560 C 154.598 129.132,154.235 129.600,154.010 129.600 C 153.784 129.600,153.600 129.949,153.600 130.376 C 153.600 130.803,153.420 131.264,153.201 131.399 C 152.982 131.535,152.336 132.671,151.766 133.923 C 151.197 135.175,150.476 136.710,150.165 137.332 C 149.854 137.955,149.599 138.765,149.598 139.132 C 149.596 139.500,149.344 140.280,149.038 140.867 C 148.732 141.454,148.356 142.714,148.202 143.667 C 148.048 144.620,147.658 146.229,147.334 147.242 C 146.603 149.532,146.701 167.506,147.450 168.439 C 147.697 168.748,148.023 169.856,148.174 170.902 C 148.326 171.948,148.707 173.298,149.022 173.902 C 149.337 174.506,149.596 175.300,149.598 175.668 C 149.600 176.252,150.161 177.578,151.261 179.600 C 151.441 179.930,151.866 180.740,152.205 181.400 C 154.888 186.621,163.001 196.076,167.395 199.102 C 169.002 200.209,170.728 201.611,172.071 202.900 C 172.472 203.285,172.952 203.600,173.139 203.600 C 173.459 203.600,174.673 204.504,176.000 205.730 C 176.330 206.035,177.590 206.976,178.800 207.821 C 183.877 211.366,185.507 212.491,187.463 213.798 C 188.597 214.556,190.127 215.734,190.863 216.415 C 191.598 217.095,192.943 218.160,193.852 218.780 C 195.431 219.858,197.304 221.396,198.871 222.900 C 199.272 223.285,199.752 223.600,199.938 223.600 C 200.124 223.600,200.617 223.977,201.033 224.437 C 202.470 226.024,203.850 225.386,208.733 220.875 C 210.709 219.049,220.363 211.532,223.900 209.065 C 229.313 205.289,230.237 204.612,231.185 203.727 C 231.743 203.206,232.915 202.290,233.789 201.690 C 238.440 198.500,250.400 185.824,250.400 184.085 C 250.400 183.886,250.760 183.307,251.200 182.800 C 251.640 182.293,252.000 181.635,252.000 181.339 C 252.000 181.042,252.160 180.800,252.357 180.800 C 252.553 180.800,252.837 180.306,252.989 179.702 C 253.140 179.098,253.469 178.358,253.720 178.056 C 254.417 177.216,255.838 173.143,256.810 169.200 C 257.054 168.210,257.446 166.680,257.681 165.800 C 258.449 162.928,258.543 153.898,257.831 151.447 C 257.484 150.253,257.199 148.585,257.198 147.738 C 257.196 146.892,256.933 145.697,256.612 145.083 C 256.292 144.469,255.908 143.299,255.758 142.483 C 255.609 141.667,255.242 140.645,254.943 140.211 C 254.644 139.777,254.400 139.034,254.400 138.560 C 254.400 138.086,254.130 137.474,253.800 137.200 C 253.470 136.926,253.200 136.464,253.200 136.173 C 253.200 134.046,247.334 125.001,242.496 119.669 C 239.653 116.534,232.344 110.800,231.192 110.800 C 230.962 110.800,230.678 110.546,230.559 110.236 C 230.439 109.926,229.883 109.557,229.323 109.416 C 228.762 109.276,228.042 108.899,227.723 108.580 C 227.404 108.261,226.818 108.000,226.420 108.000 C 226.023 108.000,225.474 107.730,225.200 107.400 C 224.926 107.070,224.296 106.800,223.800 106.800 C 223.304 106.800,222.674 106.530,222.400 106.200 C 222.126 105.870,221.519 105.599,221.051 105.598 C 220.583 105.596,219.668 105.318,219.018 104.979 C 218.368 104.640,217.018 104.255,216.018 104.125 C 215.018 103.994,213.730 103.651,213.155 103.362 C 211.905 102.733,198.212 102.307,193.600 102.753 " stroke="none" fill="#2d9939" fill-rule="evenodd"></path>
<path id="path3" d="M186.400 31.021 C 185.410 31.333,183.559 31.591,182.287 31.594 C 181.015 31.597,179.388 31.845,178.671 32.144 C 177.955 32.444,176.119 32.823,174.592 32.986 C 173.066 33.150,171.458 33.535,171.019 33.842 C 170.581 34.149,169.564 34.400,168.760 34.400 C 167.948 34.400,167.076 34.667,166.800 35.000 C 166.524 35.333,165.652 35.600,164.840 35.600 C 164.036 35.600,163.023 35.844,162.589 36.143 C 162.155 36.442,161.089 36.817,160.220 36.976 C 159.352 37.136,158.277 37.521,157.831 37.833 C 157.386 38.145,156.516 38.400,155.898 38.400 C 155.269 38.400,154.674 38.664,154.545 39.000 C 154.418 39.330,153.883 39.600,153.356 39.600 C 152.828 39.600,151.725 39.960,150.904 40.400 C 150.084 40.840,149.206 41.200,148.955 41.200 C 148.704 41.200,148.274 41.470,148.000 41.800 C 147.726 42.130,147.096 42.400,146.600 42.400 C 146.104 42.400,145.474 42.670,145.200 43.000 C 144.926 43.330,144.386 43.600,144.000 43.600 C 143.614 43.600,143.083 43.858,142.821 44.174 C 142.559 44.490,141.832 44.861,141.206 44.999 C 140.579 45.136,139.967 45.508,139.846 45.824 C 139.724 46.141,139.270 46.400,138.836 46.400 C 138.402 46.400,137.929 46.591,137.785 46.825 C 137.640 47.058,137.135 47.418,136.661 47.624 C 134.944 48.370,125.687 54.457,124.267 55.773 C 123.694 56.304,122.905 56.846,122.513 56.977 C 122.121 57.109,120.810 58.128,119.600 59.241 C 118.390 60.355,116.064 62.466,114.432 63.933 C 110.463 67.498,106.400 71.697,106.400 72.233 C 106.400 72.325,105.449 73.345,104.286 74.500 C 103.123 75.655,101.486 77.635,100.647 78.900 C 99.808 80.165,98.960 81.200,98.761 81.200 C 98.562 81.200,98.400 81.451,98.400 81.757 C 98.400 82.064,98.130 82.418,97.800 82.545 C 97.470 82.671,97.200 83.038,97.200 83.359 C 97.200 83.680,96.975 84.186,96.700 84.482 C 95.603 85.666,94.400 87.602,94.400 88.184 C 94.400 88.523,94.252 88.800,94.071 88.800 C 93.715 88.800,91.600 91.870,91.600 92.387 C 91.600 92.560,91.330 92.926,91.000 93.200 C 90.670 93.474,90.400 93.963,90.400 94.286 C 90.400 94.609,90.040 95.331,89.600 95.891 C 89.160 96.450,88.800 97.224,88.800 97.611 C 88.800 97.998,88.530 98.418,88.200 98.545 C 87.870 98.671,87.600 99.209,87.600 99.738 C 87.600 100.268,87.330 100.926,87.000 101.200 C 86.670 101.474,86.400 102.014,86.400 102.400 C 86.400 102.786,86.130 103.326,85.800 103.600 C 85.470 103.874,85.200 104.394,85.200 104.755 C 85.200 105.116,84.840 106.084,84.400 106.904 C 83.960 107.725,83.594 108.713,83.587 109.099 C 83.580 109.484,83.310 110.149,82.987 110.576 C 82.664 111.004,82.400 111.818,82.400 112.387 C 82.400 112.956,82.156 113.777,81.857 114.211 C 81.558 114.645,81.191 115.667,81.042 116.483 C 80.892 117.299,80.508 118.469,80.188 119.083 C 79.867 119.697,79.597 120.830,79.588 121.600 C 79.579 122.370,79.314 123.450,79.000 124.000 C 78.686 124.550,78.422 125.782,78.414 126.738 C 78.406 127.694,78.136 128.954,77.813 129.538 C 77.490 130.122,77.048 132.310,76.831 134.400 C 76.614 136.490,76.262 139.190,76.048 140.400 C 75.541 143.262,75.542 163.947,76.049 166.800 C 76.264 168.010,76.620 170.980,76.840 173.400 C 77.069 175.921,77.488 178.178,77.820 178.686 C 78.139 179.173,78.406 180.523,78.414 181.686 C 78.422 182.849,78.686 184.250,79.000 184.800 C 79.314 185.350,79.578 186.525,79.586 187.411 C 79.594 188.297,79.853 189.383,80.163 189.825 C 80.472 190.267,80.852 191.471,81.006 192.501 C 81.161 193.531,81.537 194.582,81.843 194.836 C 82.150 195.090,82.400 195.893,82.400 196.620 C 82.400 197.348,82.670 198.213,83.000 198.543 C 83.330 198.873,83.600 199.516,83.600 199.973 C 83.600 200.429,83.960 201.475,84.400 202.296 C 84.840 203.116,85.206 204.061,85.213 204.394 C 85.220 204.727,85.490 205.349,85.813 205.776 C 86.136 206.204,86.400 206.946,86.400 207.427 C 86.400 207.908,86.670 208.526,87.000 208.800 C 87.330 209.074,87.600 209.713,87.600 210.220 C 87.600 210.728,87.861 211.404,88.180 211.723 C 88.499 212.042,88.877 212.768,89.019 213.335 C 89.162 213.903,89.531 214.577,89.839 214.833 C 90.148 215.089,90.400 215.732,90.400 216.262 C 90.400 216.791,90.670 217.329,91.000 217.455 C 91.330 217.582,91.600 217.922,91.600 218.210 C 91.600 218.748,93.009 221.601,94.806 224.700 C 95.029 225.085,95.407 225.895,95.645 226.500 C 95.883 227.105,96.229 227.600,96.412 227.600 C 96.596 227.600,96.875 228.005,97.031 228.500 C 97.188 228.995,97.783 230.120,98.354 231.000 C 98.924 231.880,99.614 233.050,99.888 233.600 C 100.389 234.609,100.509 234.807,102.500 237.920 C 103.105 238.866,103.600 239.723,103.600 239.824 C 103.600 239.925,104.230 240.905,105.000 242.000 C 105.770 243.095,106.400 244.091,106.400 244.212 C 106.400 244.540,108.153 246.979,108.500 247.133 C 108.665 247.207,108.800 247.523,108.800 247.837 C 108.800 248.151,109.160 248.716,109.600 249.093 C 110.040 249.470,110.400 249.934,110.400 250.126 C 110.400 250.317,110.715 250.886,111.100 251.391 C 112.111 252.714,112.575 253.410,114.980 257.200 C 116.167 259.070,117.422 260.885,117.769 261.234 C 118.116 261.582,118.400 261.997,118.400 262.155 C 118.400 262.313,119.255 263.738,120.300 265.321 C 121.345 266.905,122.329 268.515,122.487 268.900 C 122.645 269.285,122.960 269.600,123.187 269.600 C 123.414 269.600,123.600 269.844,123.600 270.142 C 123.600 270.441,124.230 271.510,125.000 272.518 C 125.770 273.527,126.400 274.530,126.400 274.747 C 126.400 274.965,126.637 275.381,126.928 275.671 C 127.720 276.465,130.212 280.101,130.512 280.900 C 130.657 281.285,130.961 281.600,131.187 281.600 C 131.414 281.600,131.600 281.844,131.600 282.142 C 131.600 282.441,132.185 283.481,132.900 284.454 C 134.545 286.692,135.104 287.574,135.591 288.700 C 135.805 289.195,136.125 289.600,136.302 289.600 C 136.480 289.600,136.846 290.095,137.117 290.700 C 137.387 291.305,137.834 292.160,138.109 292.600 C 138.988 294.005,140.183 295.787,140.523 296.200 C 140.704 296.420,141.816 298.130,142.995 300.000 C 144.173 301.870,145.399 303.670,145.718 304.000 C 146.037 304.330,146.424 305.005,146.576 305.500 C 146.729 305.995,147.022 306.400,147.227 306.400 C 147.432 306.400,147.612 306.625,147.627 306.900 C 147.642 307.175,148.454 308.480,149.432 309.800 C 150.410 311.120,151.399 312.646,151.630 313.192 C 151.861 313.737,152.174 314.277,152.325 314.392 C 152.728 314.697,154.400 317.127,154.400 317.408 C 154.400 317.540,155.030 318.473,155.800 319.482 C 156.570 320.490,157.200 321.540,157.200 321.815 C 157.200 322.090,157.470 322.418,157.800 322.545 C 158.130 322.671,158.400 323.051,158.400 323.387 C 158.400 323.724,158.589 324.000,158.821 324.000 C 159.052 324.000,159.430 324.540,159.660 325.200 C 159.890 325.860,160.212 326.400,160.375 326.400 C 160.538 326.400,160.882 326.805,161.140 327.300 C 161.398 327.795,161.965 328.740,162.400 329.400 C 162.835 330.060,163.402 331.005,163.660 331.500 C 163.918 331.995,164.280 332.400,164.464 332.400 C 164.649 332.400,164.800 332.670,164.800 333.000 C 164.800 333.330,165.129 333.929,165.531 334.331 C 165.932 334.732,166.389 335.317,166.546 335.631 C 167.056 336.649,167.784 337.767,169.104 339.560 C 169.817 340.528,170.400 341.569,170.400 341.873 C 170.400 342.176,170.670 342.529,171.000 342.655 C 171.330 342.782,171.600 343.030,171.600 343.207 C 171.600 343.689,173.699 346.800,174.024 346.800 C 174.180 346.800,174.421 347.115,174.560 347.500 C 174.932 348.528,175.639 349.637,177.100 351.477 C 177.815 352.378,178.400 353.235,178.400 353.382 C 178.400 353.528,179.030 354.473,179.800 355.482 C 180.570 356.490,181.200 357.559,181.200 357.858 C 181.200 358.156,181.384 358.400,181.610 358.400 C 181.835 358.400,182.203 358.805,182.427 359.300 C 183.077 360.736,183.711 361.726,185.100 363.477 C 185.815 364.378,186.400 365.232,186.400 365.374 C 186.400 365.618,187.961 367.970,188.408 368.400 C 188.523 368.510,188.834 369.095,189.100 369.700 C 189.365 370.305,189.767 370.800,189.991 370.800 C 190.216 370.800,190.400 371.076,190.400 371.413 C 190.400 371.749,190.670 372.129,191.000 372.255 C 191.330 372.382,191.604 372.781,191.609 373.143 C 191.614 373.504,192.244 374.495,193.009 375.344 C 193.774 376.193,194.400 377.059,194.400 377.268 C 194.400 377.477,195.030 378.473,195.800 379.482 C 196.570 380.490,197.200 381.458,197.200 381.633 C 197.200 381.808,197.740 382.542,198.400 383.264 C 199.060 383.987,199.600 384.864,199.600 385.214 C 199.600 386.180,201.715 388.000,202.837 388.000 C 203.773 388.000,206.800 384.685,206.800 383.659 C 206.800 383.461,207.089 383.058,207.442 382.765 C 207.795 382.473,208.244 381.865,208.441 381.416 C 208.921 380.320,209.652 379.225,210.500 378.335 C 210.885 377.931,211.200 377.407,211.200 377.171 C 211.200 376.936,211.425 376.492,211.700 376.185 C 213.314 374.386,213.939 373.500,214.655 372.000 C 214.812 371.670,215.539 370.661,216.271 369.759 C 217.002 368.856,217.600 367.922,217.600 367.683 C 217.600 367.445,218.141 366.657,218.802 365.933 C 219.463 365.209,220.106 364.295,220.231 363.901 C 220.356 363.507,220.985 362.608,221.629 361.903 C 222.273 361.198,222.800 360.390,222.800 360.107 C 222.800 359.824,223.160 359.284,223.600 358.907 C 224.040 358.530,224.400 357.992,224.400 357.711 C 224.400 357.430,224.589 357.200,224.821 357.200 C 225.052 357.200,225.430 356.660,225.660 356.000 C 225.890 355.340,226.241 354.800,226.439 354.800 C 226.638 354.800,226.800 354.524,226.800 354.187 C 226.800 353.851,227.057 353.476,227.372 353.355 C 227.687 353.235,228.132 352.655,228.362 352.068 C 228.592 351.481,229.582 349.920,230.563 348.600 C 231.544 347.280,232.358 345.975,232.373 345.700 C 232.388 345.425,232.584 345.200,232.810 345.200 C 233.035 345.200,233.393 344.745,233.604 344.189 C 233.815 343.634,234.174 342.959,234.402 342.689 C 235.965 340.838,236.400 340.234,236.400 339.915 C 236.400 339.715,237.030 338.727,237.800 337.718 C 238.570 336.710,239.200 335.742,239.200 335.567 C 239.200 335.392,239.740 334.658,240.400 333.936 C 241.060 333.213,241.600 332.342,241.600 332.000 C 241.600 331.658,241.915 331.080,242.300 330.717 C 243.385 329.693,243.977 328.902,244.401 327.911 C 244.615 327.410,245.785 325.650,247.000 324.000 C 248.215 322.350,249.385 320.590,249.599 320.089 C 249.813 319.589,250.174 318.959,250.402 318.689 C 251.965 316.838,252.400 316.234,252.400 315.915 C 252.400 315.715,253.030 314.727,253.800 313.718 C 254.570 312.710,255.200 311.656,255.200 311.376 C 255.200 311.096,255.335 310.807,255.500 310.733 C 255.847 310.579,257.600 308.140,257.600 307.812 C 257.600 307.691,258.230 306.695,259.000 305.600 C 259.770 304.505,260.400 303.426,260.400 303.204 C 260.400 302.982,260.586 302.800,260.813 302.800 C 261.039 302.800,261.343 302.485,261.488 302.100 C 261.632 301.715,262.302 300.581,262.975 299.580 C 265.036 296.518,265.215 296.224,265.458 295.500 C 265.588 295.115,265.835 294.800,266.009 294.800 C 266.182 294.800,266.820 293.945,267.426 292.900 C 268.032 291.855,268.769 290.856,269.064 290.680 C 269.359 290.504,269.600 290.205,269.600 290.016 C 269.600 289.826,271.085 287.435,272.900 284.702 C 277.318 278.050,277.169 278.282,277.469 277.600 C 277.614 277.270,278.238 276.351,278.854 275.558 C 279.471 274.764,280.157 273.639,280.378 273.058 C 280.599 272.476,280.965 272.000,281.190 272.000 C 281.416 272.000,281.600 271.739,281.600 271.420 C 281.600 271.101,281.829 270.696,282.108 270.520 C 282.388 270.344,282.840 269.750,283.113 269.200 C 283.385 268.650,283.964 267.660,284.398 267.000 C 284.833 266.340,285.366 265.395,285.584 264.900 C 285.802 264.405,286.123 264.000,286.298 264.000 C 286.473 264.000,287.063 263.145,287.608 262.100 C 288.154 261.055,288.805 260.067,289.055 259.905 C 289.306 259.743,289.624 259.158,289.763 258.605 C 289.902 258.052,290.192 257.600,290.408 257.600 C 290.623 257.600,290.800 257.352,290.800 257.049 C 290.800 256.746,291.089 256.258,291.442 255.965 C 291.795 255.673,292.247 255.065,292.448 254.616 C 292.912 253.577,296.168 248.802,296.982 247.966 C 297.322 247.618,297.600 247.112,297.600 246.842 C 297.600 246.573,298.230 245.527,299.000 244.518 C 299.770 243.510,300.400 242.450,300.400 242.162 C 300.400 241.875,300.625 241.496,300.900 241.320 C 301.175 241.144,301.846 240.145,302.392 239.100 C 302.937 238.055,303.510 237.200,303.665 237.200 C 303.819 237.200,304.066 236.823,304.212 236.362 C 304.358 235.902,304.955 234.777,305.539 233.862 C 307.401 230.945,307.596 230.619,308.095 229.600 C 308.364 229.050,308.731 228.494,308.911 228.365 C 309.276 228.102,311.316 224.492,312.209 222.527 C 312.527 221.827,312.971 221.142,313.194 221.004 C 313.417 220.866,313.600 220.333,313.600 219.819 C 313.600 219.306,313.847 218.791,314.149 218.675 C 314.450 218.559,314.819 217.978,314.968 217.384 C 315.117 216.790,315.501 216.042,315.820 215.723 C 316.139 215.404,316.406 214.841,316.413 214.471 C 316.420 214.102,316.690 213.451,317.013 213.024 C 317.336 212.596,317.600 211.944,317.600 211.573 C 317.600 211.202,317.870 210.674,318.200 210.400 C 318.530 210.126,318.800 209.606,318.800 209.245 C 318.800 208.884,319.160 207.916,319.600 207.096 C 320.040 206.275,320.400 205.174,320.400 204.650 C 320.400 204.127,320.670 203.474,321.000 203.200 C 321.330 202.926,321.600 202.116,321.600 201.400 C 321.600 200.684,321.856 199.886,322.169 199.626 C 322.482 199.366,322.864 198.399,323.019 197.477 C 323.174 196.555,323.548 195.445,323.850 195.011 C 324.153 194.577,324.400 193.564,324.400 192.760 C 324.400 191.948,324.667 191.076,325.000 190.800 C 325.391 190.475,325.600 189.585,325.600 188.240 C 325.600 187.106,325.852 185.818,326.160 185.378 C 326.468 184.939,326.851 183.504,327.010 182.189 C 327.170 180.875,327.481 179.453,327.702 179.030 C 327.923 178.606,328.254 176.176,328.438 173.630 C 328.623 171.083,328.946 168.010,329.157 166.800 C 329.664 163.898,329.662 149.149,329.154 146.600 C 328.935 145.500,328.618 142.497,328.450 139.927 C 328.281 137.358,327.956 135.018,327.726 134.727 C 327.496 134.437,327.208 132.940,327.084 131.400 C 326.961 129.860,326.578 128.060,326.233 127.400 C 325.887 126.740,325.597 125.480,325.588 124.600 C 325.579 123.720,325.314 122.550,325.000 122.000 C 324.686 121.450,324.422 120.257,324.414 119.349 C 324.406 118.441,324.150 117.490,323.843 117.236 C 323.537 116.982,323.169 115.985,323.024 115.020 C 322.879 114.055,322.500 113.049,322.180 112.784 C 321.861 112.519,321.600 111.818,321.600 111.227 C 321.600 110.636,321.336 109.804,321.013 109.376 C 320.690 108.949,320.420 108.217,320.413 107.749 C 320.406 107.281,320.149 106.690,319.842 106.435 C 319.535 106.180,319.170 105.366,319.031 104.626 C 318.892 103.886,318.514 103.060,318.189 102.791 C 317.865 102.522,317.588 102.009,317.574 101.651 C 317.559 101.293,316.753 99.560,315.783 97.800 C 314.812 96.040,313.845 94.212,313.633 93.739 C 313.422 93.265,313.058 92.760,312.825 92.615 C 312.591 92.471,312.400 91.998,312.400 91.564 C 312.400 91.130,312.143 90.676,311.828 90.555 C 311.513 90.435,311.056 89.855,310.812 89.268 C 310.029 87.386,309.167 86.000,308.778 86.000 C 308.570 86.000,308.400 85.743,308.400 85.429 C 308.400 85.114,308.175 84.614,307.900 84.318 C 307.060 83.412,305.600 81.252,305.600 80.915 C 305.600 80.740,304.700 79.644,303.600 78.478 C 302.500 77.313,301.600 76.252,301.600 76.121 C 301.600 75.073,289.312 62.540,284.800 58.987 C 281.215 56.163,281.253 56.194,280.039 55.193 C 279.510 54.757,278.875 54.400,278.628 54.400 C 278.380 54.400,277.880 54.085,277.517 53.700 C 276.438 52.557,275.681 52.011,274.611 51.604 C 274.055 51.393,273.600 51.035,273.600 50.810 C 273.600 50.584,273.324 50.400,272.987 50.400 C 272.651 50.400,272.276 50.141,272.154 49.824 C 272.033 49.508,271.408 49.134,270.767 48.993 C 270.125 48.852,269.600 48.581,269.600 48.390 C 269.600 48.026,268.155 47.144,266.300 46.377 C 265.695 46.127,265.200 45.774,265.200 45.593 C 265.200 45.412,264.672 45.148,264.028 45.006 C 263.383 44.864,262.641 44.490,262.379 44.174 C 262.117 43.858,261.586 43.600,261.200 43.600 C 260.814 43.600,260.274 43.330,260.000 43.000 C 259.726 42.670,259.096 42.400,258.600 42.400 C 258.104 42.400,257.478 42.135,257.209 41.811 C 256.940 41.486,256.114 41.108,255.374 40.969 C 254.634 40.830,253.820 40.465,253.565 40.158 C 253.310 39.851,252.661 39.600,252.122 39.600 C 251.584 39.600,250.873 39.330,250.543 39.000 C 250.213 38.670,249.546 38.400,249.060 38.400 C 248.575 38.400,247.814 38.145,247.369 37.833 C 246.923 37.521,245.848 37.136,244.980 36.976 C 244.111 36.817,243.045 36.442,242.611 36.143 C 242.177 35.844,241.219 35.600,240.482 35.600 C 239.746 35.600,238.873 35.330,238.543 35.000 C 238.200 34.657,237.223 34.400,236.260 34.400 C 235.335 34.400,234.211 34.143,233.761 33.828 C 233.312 33.513,231.787 33.130,230.372 32.975 C 228.958 32.821,227.440 32.502,227.000 32.266 C 226.560 32.031,224.580 31.706,222.600 31.545 C 220.620 31.384,218.010 31.074,216.800 30.856 C 213.192 30.204,188.567 30.338,186.400 31.021 M214.742 31.361 C 215.984 31.669,218.717 32.037,220.815 32.179 C 222.913 32.320,225.343 32.690,226.215 33.000 C 227.087 33.311,228.610 33.579,229.600 33.597 C 230.590 33.614,231.850 33.886,232.400 34.200 C 232.950 34.514,233.991 34.778,234.713 34.786 C 235.435 34.794,236.672 35.070,237.462 35.400 C 238.251 35.730,239.283 36.000,239.755 36.000 C 240.226 36.000,241.284 36.360,242.104 36.800 C 242.925 37.240,244.116 37.600,244.750 37.600 C 245.383 37.600,246.126 37.870,246.400 38.200 C 246.674 38.530,247.281 38.806,247.749 38.814 C 248.217 38.821,249.320 39.175,250.200 39.600 C 251.080 40.025,252.010 40.379,252.268 40.386 C 252.525 40.394,253.245 40.661,253.868 40.980 C 254.490 41.298,255.270 41.657,255.600 41.777 C 255.930 41.897,256.470 42.156,256.800 42.353 C 257.130 42.550,259.525 43.766,262.122 45.055 C 267.065 47.510,268.208 48.110,269.200 48.771 C 274.879 52.555,276.667 53.770,279.200 55.563 C 280.850 56.731,282.380 57.895,282.600 58.149 C 282.820 58.403,284.260 59.591,285.800 60.788 C 289.167 63.406,296.035 70.311,299.206 74.265 C 300.469 75.841,301.986 77.641,302.577 78.265 C 303.168 78.889,304.107 80.165,304.664 81.100 C 305.221 82.035,305.839 82.800,306.038 82.800 C 306.237 82.800,306.400 82.981,306.400 83.202 C 306.400 83.423,307.211 84.764,308.203 86.183 C 309.194 87.601,310.180 89.220,310.393 89.781 C 310.606 90.341,310.950 90.800,311.158 90.800 C 311.366 90.800,311.652 91.325,311.793 91.967 C 311.934 92.608,312.308 93.233,312.624 93.354 C 312.941 93.476,313.200 93.905,313.200 94.307 C 313.200 94.710,313.375 95.215,313.590 95.430 C 314.196 96.036,317.200 101.979,317.200 102.573 C 317.200 102.864,317.470 103.326,317.800 103.600 C 318.130 103.874,318.400 104.513,318.400 105.020 C 318.400 105.528,318.670 106.213,319.000 106.543 C 319.330 106.873,319.606 107.381,319.614 107.671 C 319.621 107.962,319.975 108.920,320.400 109.800 C 320.825 110.680,321.179 111.783,321.186 112.251 C 321.194 112.719,321.470 113.326,321.800 113.600 C 322.130 113.874,322.400 114.693,322.400 115.420 C 322.400 116.148,322.641 116.984,322.936 117.279 C 323.231 117.574,323.596 118.745,323.747 119.882 C 323.897 121.019,324.285 122.455,324.608 123.074 C 324.931 123.693,325.203 124.920,325.212 125.800 C 325.221 126.680,325.486 127.850,325.800 128.400 C 326.114 128.950,326.378 130.412,326.386 131.650 C 326.394 132.887,326.657 134.628,326.971 135.518 C 327.285 136.409,327.657 139.086,327.796 141.468 C 327.936 143.851,328.316 147.456,328.640 149.479 C 329.125 152.506,329.153 154.243,328.798 159.279 C 328.110 169.010,327.318 176.868,326.851 178.600 C 326.613 179.480,326.409 180.920,326.397 181.800 C 326.385 182.680,326.110 183.749,325.787 184.176 C 325.464 184.604,325.199 185.774,325.198 186.776 C 325.196 187.779,324.924 189.119,324.594 189.753 C 324.263 190.387,323.878 191.647,323.737 192.553 C 323.597 193.459,323.238 194.555,322.941 194.989 C 322.643 195.423,322.400 196.346,322.400 197.040 C 322.400 197.734,322.130 198.526,321.800 198.800 C 321.470 199.074,321.200 199.884,321.200 200.600 C 321.200 201.316,320.930 202.126,320.600 202.400 C 320.270 202.674,320.000 203.261,320.000 203.705 C 320.000 204.149,319.621 205.342,319.157 206.356 C 318.693 207.370,318.089 208.740,317.814 209.400 C 316.878 211.646,315.552 214.598,315.208 215.200 C 315.019 215.530,313.820 217.870,312.542 220.400 C 311.264 222.930,309.989 225.238,309.709 225.529 C 309.429 225.819,309.200 226.232,309.200 226.445 C 309.200 226.658,308.862 227.320,308.449 227.916 C 306.359 230.931,305.200 232.899,305.200 233.433 C 305.200 233.758,304.943 234.124,304.628 234.245 C 304.313 234.365,303.866 234.945,303.634 235.532 C 303.071 236.956,302.312 238.128,301.700 238.520 C 301.425 238.696,301.200 239.108,301.200 239.436 C 301.200 239.764,300.862 240.520,300.448 241.116 C 298.283 244.235,294.400 250.362,294.400 250.659 C 294.400 250.847,293.770 251.708,293.000 252.573 C 292.230 253.438,291.600 254.312,291.600 254.515 C 291.600 254.718,291.105 255.541,290.500 256.344 C 289.895 257.147,289.183 258.162,288.917 258.602 C 288.652 259.041,287.949 260.210,287.355 261.200 C 286.762 262.190,285.764 263.656,285.138 264.458 C 284.512 265.259,284.000 266.078,284.000 266.276 C 284.000 266.475,283.729 266.989,283.397 267.419 C 283.066 267.848,281.824 269.730,280.639 271.600 C 279.453 273.470,278.194 275.315,277.841 275.700 C 277.489 276.085,277.200 276.553,277.200 276.740 C 277.200 276.927,276.652 277.837,275.982 278.761 C 275.312 279.686,274.596 280.883,274.392 281.421 C 274.187 281.960,273.835 282.400,273.610 282.400 C 273.384 282.400,273.200 282.574,273.200 282.787 C 273.200 283.001,272.435 284.269,271.500 285.607 C 270.565 286.945,269.620 288.341,269.400 288.709 C 269.180 289.077,268.415 290.174,267.700 291.146 C 266.985 292.119,266.400 293.069,266.400 293.258 C 266.400 293.446,266.085 293.947,265.700 294.371 C 264.418 295.783,264.000 296.363,264.000 296.726 C 264.000 296.923,263.370 297.910,262.600 298.918 C 261.830 299.927,261.195 300.988,261.189 301.276 C 261.183 301.564,260.647 302.321,259.997 302.958 C 259.348 303.595,258.699 304.495,258.555 304.958 C 258.411 305.421,257.777 306.456,257.147 307.258 C 256.516 308.059,256.000 308.855,256.000 309.026 C 256.000 309.197,255.701 309.667,255.336 310.071 C 254.616 310.867,253.870 312.079,253.227 313.500 C 253.003 313.995,252.647 314.400,252.437 314.400 C 252.226 314.400,251.928 314.805,251.774 315.300 C 251.619 315.795,250.977 316.856,250.347 317.658 C 249.716 318.459,249.200 319.232,249.200 319.374 C 249.200 319.611,247.663 321.937,247.200 322.400 C 246.613 322.987,245.200 325.222,245.200 325.564 C 245.200 325.782,244.957 326.104,244.660 326.280 C 244.364 326.456,243.869 327.083,243.560 327.674 C 243.252 328.265,242.100 330.047,241.000 331.634 C 238.076 335.853,237.652 336.509,237.231 337.461 C 237.021 337.935,236.647 338.447,236.400 338.600 C 236.153 338.753,235.779 339.265,235.569 339.739 C 235.206 340.558,232.300 344.917,231.007 346.581 C 230.673 347.011,230.400 347.525,230.400 347.724 C 230.400 347.922,229.815 348.822,229.100 349.723 C 228.385 350.624,227.620 351.672,227.400 352.052 C 227.180 352.433,226.153 353.971,225.117 355.472 C 219.886 363.051,218.400 365.303,218.400 365.648 C 218.400 365.855,218.130 366.129,217.800 366.255 C 217.470 366.382,217.200 366.641,217.200 366.830 C 217.200 367.020,216.435 368.269,215.500 369.607 C 214.565 370.945,213.620 372.346,213.400 372.720 C 213.180 373.094,212.415 374.150,211.700 375.067 C 210.985 375.984,210.400 376.847,210.400 376.984 C 210.400 377.214,208.853 379.547,208.400 380.000 C 208.290 380.110,207.930 380.688,207.600 381.285 C 206.117 383.967,203.344 387.596,202.775 387.598 C 202.169 387.600,200.400 385.582,200.400 384.889 C 200.400 384.700,199.770 383.838,199.000 382.973 C 198.230 382.108,197.600 381.258,197.600 381.084 C 197.600 380.748,196.138 378.586,195.300 377.682 C 195.025 377.386,194.800 376.926,194.800 376.661 C 194.800 376.395,194.260 375.587,193.600 374.864 C 192.940 374.142,192.400 373.408,192.400 373.233 C 192.400 373.058,191.770 372.090,191.000 371.082 C 190.230 370.073,189.600 369.149,189.600 369.027 C 189.600 368.906,188.970 367.982,188.200 366.973 C 187.430 365.964,186.800 364.923,186.800 364.658 C 186.800 364.394,186.485 363.880,186.100 363.517 C 185.037 362.514,184.400 361.673,184.400 361.274 C 184.400 361.077,183.770 360.090,183.000 359.082 C 182.230 358.073,181.600 357.140,181.600 357.008 C 181.600 356.733,180.048 354.489,179.300 353.682 C 179.025 353.386,178.800 352.926,178.800 352.660 C 178.800 352.395,178.485 351.880,178.100 351.517 C 177.015 350.493,176.400 349.671,176.400 349.245 C 176.400 349.032,176.172 348.619,175.892 348.329 C 175.255 347.665,169.208 338.755,168.400 337.289 C 168.070 336.690,167.710 336.110,167.600 336.000 C 167.048 335.448,165.600 333.188,165.600 332.878 C 165.600 332.683,165.240 332.198,164.800 331.800 C 164.360 331.402,164.000 330.834,164.000 330.538 C 164.000 330.242,163.838 330.000,163.639 330.000 C 163.441 330.000,163.090 329.460,162.860 328.800 C 162.630 328.140,162.252 327.600,162.021 327.600 C 161.789 327.600,161.600 327.445,161.600 327.256 C 161.600 326.878,155.199 316.983,154.299 315.969 C 153.991 315.623,153.616 315.083,153.465 314.769 C 153.314 314.456,152.878 313.740,152.496 313.177 C 152.113 312.615,151.260 311.288,150.600 310.229 C 149.940 309.170,149.176 308.069,148.902 307.782 C 148.627 307.495,148.220 306.842,147.995 306.330 C 147.506 305.214,144.288 300.459,143.418 299.566 C 143.078 299.218,142.800 298.692,142.800 298.398 C 142.800 298.104,142.554 297.579,142.253 297.231 C 141.395 296.241,138.800 292.435,138.800 292.167 C 138.800 292.035,138.485 291.514,138.100 291.009 C 137.198 289.828,136.719 289.119,134.850 286.200 C 130.639 279.623,129.334 277.659,128.121 276.069 C 127.394 275.118,126.800 274.173,126.800 273.969 C 126.800 273.766,126.515 273.285,126.166 272.900 C 125.399 272.052,120.420 264.443,120.081 263.600 C 119.823 262.957,119.412 262.396,118.300 261.171 C 117.915 260.747,117.600 260.259,117.600 260.086 C 117.600 259.914,116.700 258.470,115.600 256.878 C 114.500 255.287,113.600 253.903,113.600 253.805 C 113.600 253.706,112.835 252.531,111.900 251.193 C 110.965 249.855,110.020 248.463,109.800 248.100 C 109.580 247.737,108.815 246.578,108.100 245.524 C 107.385 244.470,106.800 243.435,106.800 243.224 C 106.800 243.013,106.575 242.696,106.300 242.520 C 106.025 242.344,105.354 241.345,104.808 240.300 C 104.263 239.255,103.680 238.400,103.514 238.400 C 103.347 238.400,102.944 237.815,102.619 237.100 C 101.718 235.124,100.141 232.419,99.433 231.637 C 99.085 231.252,98.800 230.658,98.800 230.317 C 98.800 229.977,98.530 229.474,98.200 229.200 C 97.870 228.926,97.600 228.467,97.600 228.180 C 97.600 227.892,97.352 227.409,97.048 227.105 C 96.744 226.801,96.011 225.529,95.419 224.276 C 94.827 223.024,94.175 222.000,93.971 222.000 C 93.767 222.000,93.600 221.722,93.600 221.383 C 93.600 221.043,92.970 219.599,92.200 218.173 C 91.430 216.747,90.800 215.309,90.800 214.977 C 90.800 214.646,90.530 214.271,90.200 214.145 C 89.870 214.018,89.600 213.506,89.600 213.006 C 89.600 212.507,89.349 211.890,89.042 211.635 C 88.735 211.380,88.370 210.566,88.231 209.826 C 88.092 209.086,87.714 208.260,87.389 207.991 C 87.065 207.722,86.800 207.087,86.800 206.580 C 86.800 206.072,86.530 205.387,86.200 205.057 C 85.870 204.727,85.594 204.129,85.586 203.729 C 85.579 203.328,85.225 202.280,84.800 201.400 C 84.375 200.520,84.021 199.596,84.014 199.346 C 84.006 199.096,83.731 198.376,83.402 197.746 C 83.074 197.116,82.804 196.139,82.802 195.576 C 82.801 195.014,82.536 194.204,82.213 193.776 C 81.890 193.349,81.620 192.455,81.613 191.789 C 81.606 191.123,81.347 190.217,81.037 189.775 C 80.728 189.333,80.350 188.078,80.197 186.986 C 80.045 185.894,79.668 184.229,79.360 183.286 C 79.052 182.343,78.794 180.903,78.786 180.086 C 78.778 179.269,78.514 178.150,78.200 177.600 C 77.836 176.963,77.618 175.367,77.600 173.200 C 77.585 171.330,77.315 168.630,77.000 167.200 C 76.175 163.451,76.170 144.084,76.993 140.200 C 77.319 138.660,77.589 136.269,77.593 134.887 C 77.597 133.505,77.870 131.728,78.200 130.938 C 78.530 130.149,78.800 128.795,78.800 127.931 C 78.800 127.067,79.053 125.872,79.361 125.275 C 79.670 124.678,80.054 123.310,80.216 122.236 C 80.377 121.161,80.753 119.814,81.052 119.241 C 81.351 118.669,81.602 117.660,81.610 117.000 C 81.619 116.340,81.890 115.451,82.213 115.024 C 82.536 114.596,82.800 113.776,82.800 113.200 C 82.800 112.624,83.064 111.804,83.387 111.376 C 83.710 110.949,83.980 110.327,83.987 109.994 C 83.994 109.661,84.360 108.716,84.800 107.896 C 85.240 107.075,85.600 106.064,85.600 105.650 C 85.600 105.237,85.870 104.674,86.200 104.400 C 86.530 104.126,86.801 103.609,86.803 103.251 C 86.804 102.893,87.163 102.060,87.600 101.400 C 88.037 100.740,88.396 99.962,88.397 99.671 C 88.399 99.381,88.670 98.873,89.000 98.543 C 89.330 98.213,89.600 97.590,89.600 97.159 C 89.600 96.728,89.870 96.271,90.200 96.145 C 90.530 96.018,90.800 95.618,90.800 95.256 C 90.800 94.894,91.430 93.711,92.200 92.628 C 92.970 91.545,93.600 90.440,93.600 90.172 C 93.600 89.905,93.870 89.582,94.200 89.455 C 94.530 89.329,94.800 88.963,94.800 88.643 C 94.800 88.323,95.391 87.282,96.113 86.331 C 96.835 85.379,97.817 83.970,98.294 83.200 C 98.772 82.430,99.577 81.347,100.082 80.794 C 100.587 80.241,101.471 79.106,102.047 78.273 C 105.102 73.854,117.894 61.003,122.030 58.200 C 123.003 57.540,124.340 56.506,125.000 55.902 C 125.660 55.298,126.361 54.803,126.559 54.802 C 126.756 54.801,127.656 54.210,128.559 53.490 C 129.461 52.769,130.895 51.824,131.744 51.390 C 132.593 50.955,133.377 50.375,133.487 50.100 C 133.596 49.825,133.928 49.600,134.225 49.600 C 134.522 49.600,135.381 49.181,136.135 48.670 C 136.889 48.158,138.742 47.130,140.253 46.384 C 141.764 45.639,143.060 44.887,143.133 44.714 C 143.207 44.542,143.455 44.400,143.684 44.400 C 144.068 44.400,148.659 42.347,151.332 40.979 C 151.955 40.661,152.678 40.400,152.938 40.400 C 153.199 40.400,154.084 40.040,154.904 39.600 C 155.725 39.160,156.803 38.794,157.299 38.787 C 157.794 38.780,158.549 38.510,158.976 38.187 C 159.404 37.864,160.169 37.600,160.678 37.600 C 161.187 37.600,162.275 37.240,163.096 36.800 C 163.916 36.360,165.131 35.994,165.794 35.987 C 166.457 35.980,167.349 35.710,167.776 35.387 C 168.204 35.064,169.157 34.800,169.896 34.800 C 170.635 34.800,171.726 34.555,172.320 34.256 C 172.914 33.956,174.614 33.603,176.098 33.471 C 177.582 33.339,179.169 33.031,179.625 32.787 C 180.081 32.543,182.197 32.186,184.327 31.993 C 186.457 31.801,188.830 31.472,189.600 31.263 C 191.943 30.625,212.099 30.704,214.742 31.361 M191.600 76.019 C 190.610 76.211,188.630 76.567,187.200 76.810 C 185.770 77.052,184.060 77.443,183.400 77.679 C 182.740 77.915,181.480 78.196,180.600 78.304 C 179.720 78.412,178.645 78.747,178.211 79.050 C 177.777 79.352,176.964 79.600,176.405 79.600 C 175.846 79.600,174.716 79.960,173.896 80.400 C 173.075 80.840,172.064 81.200,171.650 81.200 C 171.237 81.200,170.674 81.470,170.400 81.800 C 170.126 82.130,169.577 82.400,169.180 82.400 C 168.782 82.400,168.218 82.640,167.925 82.933 C 167.632 83.225,166.899 83.589,166.296 83.740 C 165.693 83.891,165.200 84.178,165.200 84.376 C 165.200 84.574,164.648 84.858,163.973 85.006 C 163.298 85.154,162.649 85.528,162.530 85.838 C 162.412 86.147,162.056 86.400,161.741 86.400 C 161.247 86.400,158.997 87.762,158.400 88.421 C 158.290 88.543,157.480 89.069,156.600 89.591 C 155.720 90.113,154.694 90.823,154.319 91.170 C 153.422 92.001,152.911 92.388,151.000 93.690 C 148.401 95.459,137.200 107.173,137.200 108.121 C 137.200 108.252,136.726 108.863,136.147 109.479 C 135.568 110.096,134.845 111.185,134.542 111.900 C 134.238 112.615,133.854 113.200,133.689 113.200 C 133.394 113.200,133.050 113.779,131.876 116.251 C 131.549 116.939,131.083 117.625,130.841 117.775 C 130.598 117.925,130.400 118.377,130.400 118.781 C 130.400 119.184,130.130 119.618,129.800 119.745 C 129.470 119.871,129.200 120.409,129.200 120.938 C 129.200 121.468,128.930 122.126,128.600 122.400 C 128.270 122.674,128.000 123.194,128.000 123.555 C 128.000 123.916,127.640 124.884,127.200 125.704 C 126.760 126.525,126.400 127.536,126.400 127.950 C 126.400 128.363,126.130 128.926,125.800 129.200 C 125.467 129.476,125.200 130.348,125.200 131.160 C 125.200 131.964,124.922 133.019,124.582 133.504 C 124.242 133.990,123.857 135.335,123.727 136.493 C 123.597 137.652,123.308 138.831,123.084 139.114 C 122.861 139.397,122.534 141.017,122.356 142.714 C 122.179 144.411,121.854 146.610,121.634 147.600 C 120.965 150.615,121.090 169.111,121.796 171.436 C 122.123 172.516,122.393 174.084,122.396 174.920 C 122.398 175.756,122.646 176.926,122.947 177.520 C 123.247 178.114,123.622 179.311,123.780 180.180 C 123.937 181.048,124.321 182.123,124.633 182.569 C 124.945 183.014,125.200 183.680,125.200 184.050 C 125.200 184.419,126.482 187.214,128.048 190.261 C 132.241 198.414,132.405 198.695,133.700 199.917 C 134.085 200.280,134.400 200.744,134.400 200.948 C 134.400 201.326,136.958 204.678,137.797 205.400 C 138.053 205.620,138.944 206.790,139.777 208.000 C 140.610 209.210,141.503 210.380,141.762 210.600 C 142.021 210.820,143.299 212.350,144.602 214.000 C 145.905 215.650,147.157 217.202,147.385 217.449 C 147.613 217.695,148.700 218.923,149.800 220.177 C 150.900 221.431,152.700 223.479,153.800 224.728 C 160.555 232.402,181.567 253.296,186.766 257.508 C 187.995 258.504,189.090 259.433,189.200 259.573 C 189.700 260.209,196.058 265.618,197.069 266.267 C 197.691 266.667,199.043 267.850,200.074 268.897 C 202.334 271.192,202.804 271.233,204.716 269.300 C 206.947 267.045,209.655 264.636,212.892 262.028 C 214.491 260.739,217.631 257.910,219.869 255.742 C 222.107 253.574,225.525 250.360,227.464 248.600 C 231.676 244.778,240.538 235.960,242.141 233.997 C 242.769 233.229,245.483 230.260,248.173 227.400 C 252.899 222.375,254.566 220.515,258.400 215.991 C 259.390 214.823,260.381 213.672,260.603 213.434 C 261.278 212.706,262.965 210.563,263.600 209.626 C 263.930 209.139,264.686 208.192,265.280 207.521 C 265.874 206.850,266.864 205.568,267.480 204.673 C 268.096 203.778,269.095 202.501,269.700 201.834 C 270.305 201.167,270.800 200.419,270.800 200.172 C 270.800 199.925,271.115 199.343,271.500 198.880 C 272.959 197.125,273.600 196.227,273.600 195.939 C 273.600 195.774,274.118 194.866,274.750 193.920 C 275.383 192.974,276.384 191.169,276.975 189.908 C 277.567 188.647,278.219 187.512,278.425 187.384 C 278.631 187.257,278.800 186.876,278.800 186.537 C 278.800 186.198,279.062 185.354,279.382 184.660 C 280.392 182.474,281.277 179.850,281.495 178.400 C 281.610 177.630,281.951 176.645,282.252 176.211 C 282.553 175.777,282.800 174.556,282.800 173.498 C 282.800 172.440,283.103 170.905,283.473 170.087 C 284.443 167.942,284.429 151.663,283.454 148.427 C 283.094 147.232,282.794 145.522,282.786 144.627 C 282.778 143.732,282.514 142.550,282.200 142.000 C 281.886 141.450,281.621 140.460,281.612 139.800 C 281.603 139.140,281.352 138.133,281.054 137.563 C 280.756 136.992,280.382 135.832,280.223 134.983 C 280.064 134.135,279.679 133.077,279.367 132.631 C 279.055 132.186,278.800 131.344,278.800 130.760 C 278.800 130.176,278.530 129.474,278.200 129.200 C 277.870 128.926,277.600 128.369,277.600 127.961 C 277.600 127.554,276.990 126.001,276.243 124.510 C 275.497 123.020,274.775 121.530,274.639 121.200 C 274.503 120.870,274.039 120.060,273.608 119.400 C 273.178 118.740,272.545 117.660,272.202 117.000 C 271.357 115.374,269.546 112.485,268.691 111.400 C 268.518 111.180,267.706 110.097,266.888 108.993 C 264.568 105.863,263.693 104.881,259.403 100.600 C 255.369 96.573,252.002 93.510,250.392 92.400 C 249.913 92.070,248.606 91.125,247.488 90.300 C 246.370 89.475,245.218 88.800,244.928 88.800 C 244.637 88.800,244.400 88.632,244.400 88.427 C 244.400 88.222,243.995 87.929,243.500 87.777 C 243.005 87.624,241.826 86.982,240.880 86.350 C 239.934 85.717,238.972 85.200,238.743 85.200 C 238.514 85.200,237.869 84.840,237.309 84.400 C 236.750 83.960,235.978 83.600,235.595 83.600 C 235.212 83.600,234.674 83.330,234.400 83.000 C 234.126 82.670,233.579 82.400,233.183 82.400 C 232.788 82.400,231.955 82.132,231.332 81.805 C 229.033 80.598,226.418 79.600,225.522 79.587 C 225.015 79.580,224.251 79.310,223.824 78.987 C 223.396 78.664,222.306 78.400,221.400 78.400 C 220.494 78.400,219.404 78.136,218.976 77.813 C 218.549 77.490,217.474 77.220,216.587 77.213 C 215.700 77.206,213.990 76.911,212.787 76.558 C 210.263 75.817,194.679 75.420,191.600 76.019 M209.875 76.835 C 210.114 77.074,211.815 77.364,213.655 77.480 C 215.495 77.596,217.399 77.941,217.886 78.246 C 218.373 78.551,219.312 78.800,219.971 78.800 C 220.631 78.800,222.084 79.160,223.200 79.600 C 224.316 80.040,225.568 80.400,225.982 80.400 C 226.396 80.400,227.245 80.654,227.868 80.965 C 228.490 81.276,229.720 81.838,230.600 82.214 C 231.480 82.589,232.866 83.235,233.679 83.648 C 234.493 84.062,235.509 84.400,235.936 84.400 C 236.364 84.400,236.818 84.670,236.945 85.000 C 237.071 85.330,237.505 85.600,237.907 85.600 C 238.310 85.600,238.841 85.801,239.086 86.046 C 239.613 86.573,240.909 87.345,242.673 88.183 C 243.373 88.516,244.058 88.971,244.196 89.194 C 244.334 89.417,244.752 89.605,245.124 89.611 C 245.496 89.617,246.321 90.153,246.958 90.803 C 247.595 91.452,248.450 92.089,248.858 92.218 C 249.266 92.348,249.600 92.610,249.600 92.800 C 249.600 92.990,249.975 93.265,250.433 93.411 C 252.037 93.919,266.400 108.250,266.400 109.341 C 266.400 109.548,266.999 110.456,267.730 111.359 C 268.462 112.261,269.407 113.630,269.830 114.400 C 270.254 115.170,270.825 115.944,271.100 116.120 C 271.375 116.296,271.600 116.717,271.600 117.057 C 271.600 117.396,271.960 118.131,272.400 118.691 C 272.840 119.250,273.200 119.932,273.200 120.205 C 273.200 120.478,273.470 120.926,273.800 121.200 C 274.130 121.474,274.400 122.023,274.400 122.420 C 274.400 122.818,274.670 123.413,275.000 123.743 C 275.330 124.073,275.600 124.536,275.600 124.773 C 275.600 125.009,275.960 125.875,276.400 126.696 C 276.840 127.516,277.200 128.429,277.200 128.723 C 277.200 129.017,277.470 129.527,277.800 129.857 C 278.130 130.187,278.400 131.052,278.400 131.780 C 278.400 132.507,278.670 133.326,279.000 133.600 C 279.330 133.874,279.600 134.625,279.600 135.269 C 279.600 135.913,279.853 136.928,280.161 137.525 C 280.470 138.122,280.854 139.490,281.016 140.564 C 281.177 141.639,281.553 142.986,281.852 143.559 C 282.151 144.131,282.396 145.522,282.398 146.650 C 282.399 147.777,282.670 149.465,283.000 150.400 C 283.859 152.835,283.859 166.605,283.000 168.662 C 282.670 169.451,282.400 171.026,282.400 172.160 C 282.400 173.294,282.157 174.577,281.859 175.011 C 281.562 175.445,281.203 176.541,281.063 177.447 C 280.922 178.353,280.537 179.613,280.206 180.247 C 279.876 180.881,279.598 181.760,279.590 182.200 C 279.581 182.640,279.310 183.349,278.987 183.776 C 278.664 184.204,278.400 184.958,278.400 185.453 C 278.400 185.948,278.234 186.455,278.031 186.581 C 277.828 186.706,277.094 187.975,276.400 189.400 C 275.706 190.825,274.972 192.094,274.769 192.219 C 274.566 192.345,274.400 192.797,274.400 193.224 C 274.400 193.651,274.211 194.000,273.980 194.000 C 273.748 194.000,273.296 194.585,272.974 195.300 C 272.166 197.093,271.490 198.142,270.900 198.520 C 270.625 198.696,270.400 199.018,270.400 199.236 C 270.400 199.705,269.042 201.631,267.500 203.352 C 266.895 204.026,266.399 204.763,266.398 204.989 C 266.397 205.215,265.896 205.940,265.284 206.600 C 264.672 207.260,263.112 209.150,261.817 210.800 C 260.522 212.450,259.178 214.091,258.831 214.446 C 257.471 215.839,253.382 220.549,253.063 221.090 C 252.877 221.405,252.157 222.261,251.463 222.994 C 250.768 223.726,247.593 227.087,244.407 230.462 C 236.104 239.258,228.561 246.694,214.390 260.050 C 214.010 260.408,213.510 260.768,213.277 260.850 C 212.827 261.010,208.366 264.947,205.065 268.100 C 202.638 270.418,202.521 270.423,200.345 268.290 C 199.385 267.349,197.258 265.504,195.617 264.190 C 193.976 262.875,192.065 261.260,191.371 260.600 C 190.131 259.422,189.376 258.758,186.191 256.044 C 182.031 252.499,177.627 248.322,169.952 240.643 C 165.359 236.047,161.600 232.217,161.600 232.133 C 161.600 232.048,160.745 231.132,159.700 230.096 C 158.655 229.061,157.314 227.612,156.720 226.876 C 155.710 225.627,150.401 219.678,149.309 218.572 C 149.039 218.299,147.703 216.672,146.340 214.956 C 144.976 213.241,143.352 211.340,142.730 210.732 C 142.109 210.124,141.600 209.524,141.600 209.397 C 141.600 209.016,139.872 206.713,138.700 205.534 C 138.095 204.925,137.600 204.260,137.600 204.056 C 137.600 203.852,137.330 203.582,137.000 203.455 C 136.670 203.329,136.400 203.036,136.400 202.804 C 136.400 202.572,135.523 201.262,134.452 199.891 C 133.381 198.521,132.378 196.995,132.225 196.500 C 132.072 196.005,131.796 195.600,131.612 195.600 C 131.429 195.600,131.083 195.105,130.845 194.500 C 130.607 193.895,130.242 193.130,130.035 192.800 C 129.827 192.470,129.556 191.930,129.431 191.600 C 129.307 191.270,129.044 190.730,128.847 190.400 C 128.650 190.070,127.996 188.761,127.393 187.491 C 126.789 186.222,126.139 185.086,125.948 184.968 C 125.757 184.850,125.600 184.155,125.600 183.425 C 125.600 182.695,125.330 181.874,125.000 181.600 C 124.670 181.326,124.399 180.539,124.398 179.851 C 124.396 179.163,124.150 178.130,123.850 177.556 C 123.550 176.981,123.178 175.271,123.024 173.756 C 122.869 172.240,122.485 170.112,122.171 169.027 C 121.464 166.586,121.365 152.139,122.041 149.997 C 122.283 149.229,122.622 146.890,122.795 144.800 C 122.973 142.655,123.389 140.477,123.752 139.800 C 124.106 139.140,124.396 137.767,124.398 136.749 C 124.399 135.594,124.626 134.711,125.000 134.400 C 125.330 134.126,125.600 133.293,125.600 132.550 C 125.600 131.806,125.960 130.525,126.400 129.704 C 126.840 128.884,127.206 127.939,127.213 127.606 C 127.220 127.273,127.490 126.651,127.813 126.224 C 128.136 125.796,128.400 125.054,128.400 124.573 C 128.400 124.092,128.670 123.474,129.000 123.200 C 129.330 122.926,129.600 122.285,129.600 121.775 C 129.600 121.265,129.798 120.725,130.041 120.575 C 130.283 120.425,130.746 119.739,131.068 119.051 C 131.680 117.747,132.367 116.538,133.519 114.735 C 133.894 114.150,134.701 112.848,135.313 111.842 C 135.925 110.836,136.845 109.561,137.358 109.008 C 137.870 108.455,138.809 107.237,139.445 106.301 C 140.896 104.164,149.282 95.772,151.443 94.294 C 152.333 93.686,153.587 92.676,154.230 92.050 C 154.874 91.424,155.785 90.791,156.255 90.643 C 156.726 90.495,157.556 89.975,158.100 89.487 C 159.401 88.320,160.327 87.710,161.873 86.998 C 162.573 86.676,163.258 86.229,163.396 86.006 C 163.534 85.783,164.002 85.600,164.436 85.600 C 164.870 85.600,165.329 85.330,165.455 85.000 C 165.582 84.670,166.043 84.400,166.480 84.400 C 166.916 84.400,167.731 84.040,168.291 83.600 C 168.850 83.160,169.622 82.800,170.005 82.800 C 170.388 82.800,170.926 82.530,171.200 82.200 C 171.474 81.870,172.194 81.600,172.800 81.600 C 173.406 81.600,174.107 81.353,174.357 81.051 C 174.608 80.750,175.642 80.409,176.656 80.295 C 177.670 80.181,178.630 79.876,178.789 79.617 C 178.949 79.359,180.052 79.013,181.240 78.848 C 182.428 78.684,183.793 78.336,184.274 78.075 C 184.754 77.814,186.104 77.590,187.274 77.577 C 188.443 77.565,190.030 77.316,190.800 77.025 C 192.608 76.341,209.215 76.175,209.875 76.835 M196.675 101.451 C 196.497 101.633,195.417 101.911,194.275 102.068 C 192.816 102.269,193.031 102.287,195.000 102.129 C 199.048 101.802,203.261 101.786,207.600 102.080 C 210.628 102.285,210.953 102.262,209.200 101.964 C 206.036 101.427,197.059 101.059,196.675 101.451 M188.624 103.013 C 187.666 103.737,187.787 103.737,189.800 103.012 C 191.071 102.554,191.194 102.434,190.400 102.430 C 189.850 102.428,189.051 102.690,188.624 103.013 M213.000 102.685 C 213.440 102.791,213.971 103.040,214.180 103.239 C 214.814 103.842,215.333 103.642,214.800 103.000 C 214.526 102.670,213.829 102.421,213.251 102.446 C 212.423 102.483,212.370 102.534,213.000 102.685 M184.000 104.200 C 183.726 104.530,183.119 104.808,182.651 104.817 C 181.681 104.836,178.680 106.364,179.600 106.371 C 179.930 106.373,180.549 106.110,180.976 105.787 C 181.404 105.464,182.128 105.200,182.587 105.200 C 183.046 105.200,183.785 104.945,184.229 104.634 C 184.674 104.323,185.569 103.990,186.218 103.894 C 187.304 103.734,187.282 103.715,185.949 103.660 C 185.084 103.624,184.297 103.842,184.000 104.200 M217.400 104.002 C 219.213 104.487,221.269 105.225,222.532 105.844 C 224.291 106.707,224.772 106.499,223.096 105.600 C 222.275 105.160,221.287 104.794,220.901 104.787 C 220.516 104.780,219.851 104.510,219.424 104.187 C 218.996 103.864,218.096 103.618,217.424 103.641 L 216.200 103.682 217.400 104.002 M177.200 107.000 C 176.926 107.330,176.386 107.600,176.000 107.600 C 175.614 107.600,175.074 107.870,174.800 108.200 C 174.526 108.530,174.153 108.800,173.971 108.800 C 173.581 108.800,170.000 111.175,170.000 111.434 C 170.000 111.532,170.675 111.166,171.500 110.622 C 172.325 110.078,173.900 109.164,175.000 108.591 C 178.528 106.752,179.049 106.412,178.349 106.406 C 177.991 106.403,177.474 106.670,177.200 107.000 M225.424 106.987 C 226.439 107.756,227.034 107.763,226.400 107.000 C 226.126 106.670,225.620 106.400,225.275 106.400 C 224.772 106.400,224.802 106.517,225.424 106.987 M228.200 108.400 C 228.860 108.837,229.537 109.196,229.704 109.197 C 229.871 109.199,230.906 109.830,232.004 110.600 C 233.102 111.370,234.945 112.650,236.100 113.445 C 237.255 114.240,239.905 116.535,241.988 118.545 C 245.745 122.170,245.644 121.794,241.800 117.844 C 239.497 115.478,236.246 112.800,235.675 112.800 C 235.461 112.800,235.182 112.530,235.055 112.200 C 234.929 111.870,234.638 111.600,234.408 111.600 C 234.179 111.600,233.135 111.015,232.088 110.300 C 229.789 108.730,227.798 107.599,227.338 107.603 C 227.152 107.604,227.540 107.963,228.200 108.400 M167.800 112.651 C 164.236 115.698,162.390 117.448,162.189 117.973 C 162.065 118.296,162.567 117.939,163.305 117.180 C 164.043 116.421,165.356 115.224,166.223 114.521 C 167.090 113.818,168.250 112.879,168.800 112.434 C 169.350 111.990,169.620 111.626,169.400 111.626 C 169.180 111.626,168.460 112.087,167.800 112.651 M159.206 120.900 C 157.666 122.592,155.600 125.434,155.600 125.859 C 155.600 125.981,156.629 124.758,157.886 123.141 C 159.144 121.523,160.449 119.981,160.786 119.713 C 161.124 119.445,161.254 119.220,161.077 119.213 C 160.899 119.206,160.057 119.965,159.206 120.900 M246.287 123.368 C 247.069 124.414,247.352 124.463,246.978 123.488 C 246.846 123.144,246.476 122.761,246.156 122.639 C 245.718 122.470,245.750 122.651,246.287 123.368 M154.340 127.600 C 154.110 128.260,153.759 128.800,153.561 128.800 C 153.362 128.800,153.200 128.991,153.200 129.224 C 153.200 129.911,153.860 129.304,154.746 127.801 C 155.201 127.031,155.390 126.400,155.166 126.400 C 154.942 126.400,154.570 126.940,154.340 127.600 M249.600 128.176 C 249.600 128.340,249.960 128.931,250.400 129.491 C 250.840 130.050,251.200 130.331,251.200 130.115 C 251.200 129.899,250.840 129.307,250.400 128.800 C 249.960 128.293,249.600 128.012,249.600 128.176 M152.279 131.174 C 151.304 132.825,151.453 133.251,152.457 131.683 C 152.920 130.959,153.223 130.290,153.129 130.196 C 153.035 130.102,152.652 130.542,152.279 131.174 M251.733 131.771 C 251.985 132.305,252.255 132.678,252.332 132.601 C 252.581 132.353,251.958 130.800,251.611 130.800 C 251.426 130.800,251.481 131.237,251.733 131.771 M150.590 134.030 C 150.212 135.222,150.527 135.315,151.067 134.171 C 151.319 133.637,151.374 133.200,151.189 133.200 C 151.005 133.200,150.735 133.574,150.590 134.030 M252.933 134.171 C 253.185 134.705,253.455 135.078,253.532 135.001 C 253.781 134.753,253.158 133.200,252.811 133.200 C 252.626 133.200,252.681 133.637,252.933 134.171 M149.671 136.435 C 149.381 136.899,149.221 137.355,149.315 137.449 C 149.593 137.726,150.488 136.464,150.337 136.010 C 150.260 135.780,149.960 135.971,149.671 136.435 M253.625 135.800 C 253.625 136.020,253.890 136.549,254.213 136.976 C 254.536 137.404,254.800 137.573,254.800 137.353 C 254.800 137.133,254.536 136.604,254.213 136.176 C 253.890 135.749,253.625 135.580,253.625 135.800 M148.842 138.800 C 148.805 139.350,148.510 140.149,148.187 140.576 C 147.864 141.004,147.629 141.994,147.664 142.776 L 147.728 144.200 147.894 142.840 C 147.985 142.093,148.330 141.068,148.661 140.564 C 148.991 140.059,149.182 139.231,149.085 138.723 C 148.913 137.823,148.907 137.825,148.842 138.800 M254.854 138.620 C 254.825 139.071,254.999 139.639,255.243 139.883 C 255.487 140.127,255.828 140.928,256.002 141.663 L 256.318 143.000 256.359 141.749 C 256.382 141.061,256.141 140.283,255.824 140.020 C 255.507 139.757,255.172 139.150,255.078 138.671 C 254.919 137.852,254.906 137.849,254.854 138.620 M256.413 143.420 C 256.406 143.651,256.565 144.011,256.766 144.220 C 256.968 144.429,257.213 145.050,257.312 145.600 L 257.491 146.600 257.546 145.576 C 257.575 145.014,257.336 144.204,257.013 143.776 C 256.690 143.349,256.420 143.189,256.413 143.420 M146.814 145.174 C 146.586 145.599,146.421 146.544,146.446 147.274 L 146.492 148.600 146.792 147.200 C 146.957 146.430,147.226 145.485,147.389 145.100 C 147.792 144.150,147.330 144.209,146.814 145.174 M257.759 148.800 C 258.278 151.441,258.716 152.645,258.759 151.546 C 258.782 150.966,258.521 149.886,258.181 149.146 C 257.714 148.129,257.610 148.045,257.759 148.800 M145.857 153.100 C 145.518 155.150,145.577 161.046,145.957 163.000 C 146.153 164.009,146.255 162.201,146.234 158.100 C 146.196 150.896,146.204 150.999,145.857 153.100 M258.953 158.200 C 258.953 160.840,259.018 161.868,259.097 160.484 C 259.175 159.101,259.174 156.941,259.095 155.684 C 259.016 154.428,258.952 155.560,258.953 158.200 M258.315 164.600 C 257.511 168.222,257.506 168.322,258.199 166.811 C 258.549 166.047,258.779 164.967,258.708 164.411 C 258.585 163.435,258.572 163.441,258.315 164.600 M146.459 167.600 C 146.440 168.370,146.714 169.360,147.067 169.800 L 147.708 170.600 147.400 169.800 C 147.231 169.360,146.957 168.370,146.792 167.600 L 146.492 166.200 146.459 167.600 M257.242 170.000 C 257.205 170.550,256.910 171.349,256.587 171.776 C 256.264 172.204,256.000 172.986,256.000 173.515 C 256.000 174.044,255.761 174.954,255.469 175.538 C 255.178 176.122,254.635 177.230,254.264 178.000 L 253.588 179.400 254.394 178.456 C 254.837 177.936,255.206 177.216,255.213 176.856 C 255.220 176.495,255.490 175.851,255.813 175.424 C 256.136 174.996,256.400 174.225,256.400 173.709 C 256.400 173.194,256.684 172.339,257.031 171.809 C 257.378 171.280,257.582 170.431,257.485 169.923 C 257.313 169.023,257.307 169.025,257.242 170.000 M147.646 172.224 C 147.621 172.896,147.864 173.796,148.187 174.224 C 148.510 174.651,148.780 175.326,148.787 175.725 C 148.802 176.560,150.682 180.680,151.193 180.995 C 151.381 181.112,151.009 180.122,150.367 178.797 C 149.725 177.472,149.200 176.066,149.200 175.674 C 149.200 175.281,148.993 174.753,148.740 174.500 C 148.488 174.248,148.148 173.357,147.986 172.520 C 147.710 171.094,147.689 171.076,147.646 172.224 M252.881 180.818 C 252.572 181.313,252.546 181.600,252.809 181.600 C 253.038 181.600,253.332 181.322,253.462 180.983 C 253.822 180.045,253.433 179.934,252.881 180.818 M151.605 181.800 C 151.605 182.020,151.963 182.740,152.400 183.400 C 152.837 184.060,153.195 184.420,153.195 184.200 C 153.195 183.980,152.837 183.260,152.400 182.600 C 151.963 181.940,151.605 181.580,151.605 181.800 M250.631 184.535 C 249.768 185.891,248.511 187.720,247.839 188.600 C 247.166 189.480,246.905 189.971,247.260 189.691 C 247.614 189.411,248.420 188.421,249.051 187.491 C 249.682 186.561,250.298 185.710,250.420 185.600 C 250.542 185.490,251.058 184.716,251.567 183.879 C 253.114 181.334,252.309 181.898,250.631 184.535 M154.175 186.132 C 154.791 186.939,155.376 187.600,155.475 187.600 C 155.753 187.600,154.021 185.260,153.509 184.944 C 153.259 184.789,153.559 185.324,154.175 186.132 M155.852 188.398 C 156.207 189.070,157.375 190.420,159.958 193.145 C 160.925 194.165,161.567 194.730,161.385 194.400 C 161.202 194.070,160.296 192.990,159.370 192.000 C 158.444 191.010,157.203 189.660,156.611 189.000 C 156.020 188.340,155.678 188.069,155.852 188.398 M241.711 195.075 C 241.003 195.804,240.564 196.400,240.737 196.400 C 241.134 196.400,243.401 194.053,243.171 193.880 C 243.077 193.809,242.420 194.347,241.711 195.075 M163.609 196.590 C 164.593 197.906,166.045 199.183,169.400 201.685 C 172.292 203.842,172.408 203.895,170.600 202.239 C 169.500 201.232,168.452 200.406,168.270 200.404 C 168.089 200.402,166.833 199.365,165.479 198.100 C 164.125 196.835,163.283 196.156,163.609 196.590 M238.317 198.429 C 237.373 199.324,234.746 201.505,232.480 203.275 C 230.213 205.045,228.456 206.589,228.574 206.707 C 228.691 206.825,229.241 206.468,229.794 205.915 C 230.348 205.361,231.566 204.390,232.500 203.758 C 233.435 203.125,234.740 202.121,235.400 201.527 C 238.805 198.465,240.528 196.800,240.295 196.800 C 240.152 196.800,239.262 197.533,238.317 198.429 M173.362 204.742 C 173.781 205.214,174.287 205.600,174.486 205.600 C 175.049 205.600,174.450 204.854,173.478 204.344 C 172.606 203.887,172.605 203.890,173.362 204.742 M177.042 207.366 C 177.176 207.715,177.419 208.000,177.582 208.000 C 177.744 208.000,178.293 208.360,178.800 208.800 C 179.307 209.240,179.905 209.600,180.128 209.600 C 180.351 209.600,180.458 209.545,180.367 209.477 C 180.275 209.410,179.435 208.764,178.500 208.043 C 177.507 207.278,176.900 206.996,177.042 207.366 M227.000 207.235 C 226.780 207.452,225.622 208.343,224.428 209.215 C 223.233 210.087,222.446 210.800,222.679 210.800 C 222.912 210.800,223.326 210.530,223.600 210.200 C 223.874 209.870,224.286 209.600,224.515 209.600 C 224.745 209.600,225.218 209.328,225.566 208.996 C 225.915 208.663,226.650 208.039,227.200 207.609 C 227.750 207.179,228.020 206.830,227.800 206.833 C 227.580 206.837,227.220 207.018,227.000 207.235 M182.400 211.167 C 182.400 211.572,183.956 212.582,184.195 212.332 C 184.265 212.260,183.889 211.877,183.361 211.481 C 182.832 211.086,182.400 210.945,182.400 211.167 M220.962 211.644 C 220.543 212.108,219.300 213.090,218.200 213.827 C 216.232 215.146,210.373 219.888,209.200 221.112 C 208.624 221.713,213.566 218.004,214.800 216.908 C 215.551 216.242,216.609 215.433,219.385 213.400 C 220.587 212.520,221.662 211.575,221.773 211.300 C 222.063 210.583,221.832 210.680,220.962 211.644 M186.400 213.931 C 186.400 214.143,187.284 214.884,188.364 215.577 C 189.444 216.270,190.749 217.238,191.264 217.727 C 192.992 219.370,195.931 221.600,196.367 221.600 C 196.605 221.600,196.800 221.746,196.800 221.925 C 196.800 222.103,197.385 222.667,198.100 223.178 L 199.400 224.106 198.000 222.729 C 195.974 220.737,186.400 213.475,186.400 213.931 M207.942 221.875 C 207.864 222.054,206.949 222.965,205.909 223.900 C 204.869 224.835,204.149 225.596,204.309 225.591 C 204.806 225.576,208.541 222.008,208.306 221.772 C 208.183 221.650,208.020 221.696,207.942 221.875 M199.808 224.473 C 200.173 225.414,202.396 226.444,203.134 226.013 C 203.688 225.690,203.623 225.622,202.754 225.612 C 202.179 225.605,201.235 225.228,200.656 224.773 C 200.077 224.317,199.696 224.182,199.808 224.473 " stroke="none" fill="#8fbdc3" fill-rule="evenodd"></path>
<path id="path4" d="M197.000 102.015 C 196.340 102.175,194.810 102.339,193.600 102.379 C 191.457 102.451,186.157 103.921,187.851 103.974 C 188.319 103.988,189.399 103.694,190.251 103.320 C 192.544 102.314,211.156 102.321,213.080 103.329 C 213.784 103.698,214.864 103.975,215.480 103.946 C 216.562 103.893,216.566 103.885,215.600 103.707 C 215.050 103.606,214.386 103.348,214.126 103.134 C 213.164 102.344,199.365 101.443,197.000 102.015 M184.224 104.613 C 183.796 104.936,183.072 105.200,182.613 105.200 C 182.154 105.200,181.423 105.447,180.989 105.749 C 180.555 106.051,179.627 106.422,178.928 106.575 C 178.228 106.727,177.441 107.110,177.179 107.426 C 176.563 108.168,177.176 108.144,178.176 107.387 C 178.604 107.064,179.346 106.800,179.827 106.800 C 180.308 106.800,180.907 106.552,181.159 106.250 C 181.410 105.947,182.287 105.585,183.108 105.444 C 184.637 105.181,186.696 103.988,185.576 104.013 C 185.259 104.020,184.651 104.290,184.224 104.613 M217.200 104.234 C 217.530 104.365,218.367 104.726,219.060 105.036 C 219.754 105.346,220.677 105.600,221.111 105.600 C 221.546 105.600,222.126 105.870,222.400 106.200 C 222.674 106.530,223.304 106.800,223.800 106.800 C 224.296 106.800,224.926 107.070,225.200 107.400 C 225.474 107.730,226.023 108.000,226.420 108.000 C 226.818 108.000,227.404 108.261,227.723 108.580 C 228.042 108.899,228.775 109.279,229.352 109.424 C 229.928 109.568,230.400 109.853,230.400 110.056 C 230.400 110.259,230.715 110.543,231.100 110.688 C 233.227 111.486,239.702 116.589,242.496 119.669 C 247.334 125.001,253.200 134.046,253.200 136.173 C 253.200 136.464,253.470 136.926,253.800 137.200 C 254.130 137.474,254.400 138.086,254.400 138.560 C 254.400 139.034,254.644 139.777,254.943 140.211 C 255.242 140.645,255.609 141.667,255.758 142.483 C 256.067 144.171,257.194 146.567,257.198 145.546 C 257.199 145.186,256.931 144.376,256.602 143.746 C 256.274 143.116,256.004 142.229,256.002 141.776 C 256.001 141.324,255.736 140.604,255.413 140.176 C 255.090 139.749,254.820 139.068,254.813 138.662 C 254.806 138.256,254.543 137.446,254.229 136.862 C 253.916 136.278,252.980 134.397,252.150 132.683 C 251.320 130.969,250.407 129.372,250.121 129.134 C 249.834 128.896,249.600 128.467,249.600 128.180 C 249.600 127.892,249.375 127.419,249.100 127.129 C 248.825 126.838,248.060 125.790,247.400 124.800 C 245.629 122.143,239.102 115.519,236.481 113.718 C 235.226 112.856,233.300 111.532,232.200 110.775 C 229.466 108.895,223.897 106.171,220.000 104.809 C 218.567 104.308,216.116 103.804,217.200 104.234 M174.617 108.737 C 166.865 113.083,159.101 120.431,154.962 127.339 C 151.830 132.567,150.400 135.295,150.400 136.045 C 150.400 136.406,150.130 136.926,149.800 137.200 C 149.470 137.474,149.200 138.182,149.200 138.773 C 149.200 139.364,148.936 140.196,148.613 140.624 C 148.290 141.051,148.041 141.940,148.059 142.600 C 148.081 143.394,148.154 143.529,148.274 143.000 C 148.373 142.560,148.712 141.633,149.027 140.940 C 149.342 140.246,149.600 139.406,149.600 139.072 C 149.600 138.738,149.854 137.955,150.165 137.332 C 150.476 136.710,151.197 135.175,151.766 133.923 C 152.336 132.671,152.982 131.535,153.201 131.399 C 153.420 131.264,153.600 130.803,153.600 130.376 C 153.600 129.949,153.784 129.600,154.010 129.600 C 154.235 129.600,154.598 129.132,154.815 128.560 C 155.922 125.648,163.900 116.477,167.400 114.092 C 168.280 113.493,169.090 112.912,169.200 112.801 C 169.577 112.422,171.967 110.800,172.149 110.800 C 172.249 110.800,173.287 110.170,174.456 109.400 C 176.635 107.965,176.735 107.549,174.617 108.737 M147.290 145.259 C 146.472 147.409,145.952 156.444,146.338 161.800 C 146.676 166.486,146.686 166.389,146.742 157.714 C 146.787 150.833,146.941 148.413,147.424 146.989 C 148.163 144.814,148.043 143.278,147.290 145.259 M257.253 147.738 C 257.224 148.585,257.484 150.253,257.831 151.447 C 258.555 153.937,258.445 162.944,257.655 165.900 C 257.405 166.835,257.012 168.365,256.783 169.300 C 256.553 170.235,256.262 171.360,256.137 171.800 C 255.911 172.592,255.914 172.592,256.513 171.792 C 256.845 171.347,257.302 169.907,257.528 168.592 C 257.754 167.276,258.128 165.480,258.360 164.600 C 258.908 162.516,258.903 153.458,258.353 151.400 C 258.117 150.520,257.786 148.990,257.616 148.000 L 257.307 146.200 257.253 147.738 M146.998 167.800 C 147.328 170.212,148.358 174.118,148.773 174.533 C 149.008 174.768,149.208 175.329,149.217 175.780 C 149.237 176.762,150.759 179.674,150.783 178.776 C 150.792 178.434,150.536 177.804,150.213 177.376 C 149.890 176.949,149.619 176.240,149.610 175.800 C 149.602 175.360,149.337 174.506,149.022 173.902 C 148.707 173.298,148.326 171.948,148.174 170.902 C 148.023 169.856,147.761 168.820,147.593 168.600 C 147.424 168.380,147.184 167.840,147.060 167.400 C 146.935 166.960,146.907 167.140,146.998 167.800 M255.513 173.600 C 255.110 175.227,254.209 177.466,253.720 178.056 C 253.469 178.358,253.140 179.098,252.989 179.702 C 252.837 180.306,252.553 180.800,252.357 180.800 C 252.160 180.800,252.000 181.042,252.000 181.339 C 252.000 181.635,251.640 182.293,251.200 182.800 C 250.760 183.307,250.400 183.886,250.400 184.085 C 250.400 185.824,238.440 198.500,233.789 201.690 C 232.915 202.290,231.743 203.206,231.185 203.727 C 230.237 204.612,229.313 205.289,223.900 209.065 C 218.172 213.060,207.600 221.540,207.600 222.138 C 207.600 222.286,208.095 221.975,208.700 221.449 C 211.716 218.824,216.375 215.062,217.800 214.102 C 218.680 213.509,220.054 212.479,220.853 211.812 C 221.653 211.145,223.240 209.970,224.381 209.200 C 225.522 208.430,226.700 207.575,226.999 207.300 C 227.298 207.025,227.647 206.800,227.774 206.800 C 228.561 206.800,237.592 199.162,242.079 194.701 C 247.608 189.204,250.622 185.193,253.445 179.577 C 255.910 174.672,256.098 174.202,255.926 173.384 C 255.782 172.704,255.727 172.733,255.513 173.600 M150.800 179.770 C 150.800 179.890,151.340 180.866,152.000 181.938 C 152.660 183.011,153.200 184.003,153.200 184.142 C 153.200 185.556,165.044 198.266,168.532 200.596 C 169.375 201.159,170.635 202.154,171.332 202.808 C 172.029 203.462,172.704 203.997,172.831 203.998 C 172.958 203.999,174.706 205.215,176.715 206.700 C 178.725 208.185,181.279 210.030,182.391 210.800 C 185.318 212.827,185.282 212.801,191.393 217.424 C 194.470 219.751,197.080 221.790,197.193 221.955 C 199.541 225.360,203.351 226.260,205.715 223.966 C 207.121 222.603,207.184 222.483,206.100 223.241 C 205.385 223.741,204.800 224.288,204.800 224.457 C 204.800 225.289,201.939 225.283,201.052 224.449 C 200.555 223.982,200.025 223.600,199.874 223.600 C 199.723 223.600,199.272 223.285,198.871 222.900 C 197.304 221.396,195.431 219.858,193.852 218.780 C 192.943 218.160,191.598 217.095,190.863 216.415 C 190.127 215.734,188.597 214.556,187.463 213.798 C 185.507 212.491,183.877 211.366,178.800 207.821 C 177.590 206.976,176.330 206.035,176.000 205.730 C 174.673 204.504,173.459 203.600,173.139 203.600 C 172.952 203.600,172.472 203.285,172.071 202.900 C 170.728 201.611,169.002 200.209,167.395 199.102 C 162.913 196.015,154.532 186.201,152.217 181.327 C 151.671 180.179,150.800 179.222,150.800 179.770 " stroke="none" fill="#7cb474" fill-rule="evenodd">
</path></g></svg>