<svg version="1.1" id="Layer_1" xmlns="http://www.w3.org/2000/svg" xmlns:xlink="http://www.w3.org/1999/xlink" x="0px" y="0px"
	 width="100%" viewBox="0 0 300 323" enable-background="new 0 0 300 323" xml:space="preserve">
<path fill="#F7F5F3" opacity="1.000000" stroke="none" 
	d="
M1.000000,121.000000 
	C1.000000,80.666687 1.000000,40.833370 1.000000,1.000043 
	C100.999931,1.000028 200.999863,1.000028 300.999817,1.000014 
	C300.999878,108.666542 300.999878,216.333084 300.999939,323.999725 
	C201.000168,323.999817 101.000328,323.999817 1.000249,323.999908 
	C1.000000,256.500000 1.000000,189.000000 1.000000,121.000000 
M202.975769,37.016396 
	C202.975769,37.016396 202.943970,37.093182 202.893936,36.349064 
	C200.490585,35.271885 198.087234,34.194706 195.310745,33.124252 
	C195.310745,33.124252 194.998901,32.919220 194.869186,32.230225 
	C189.864624,30.597992 184.860062,28.965757 179.224808,27.219313 
	C178.816025,27.097139 178.407257,26.974966 177.894592,26.261209 
	C177.213287,26.285845 176.531982,26.310480 175.219025,26.232668 
	C174.811951,26.105940 174.404861,25.979212 173.868423,25.207029 
	C172.877762,25.222296 171.887100,25.237562 170.163345,25.216253 
	C169.440979,25.090147 168.718597,24.964041 167.789444,24.100571 
	C160.200790,23.498964 152.613419,22.878084 145.018723,22.366188 
	C144.714828,22.345707 144.341293,23.358925 143.311722,24.122797 
	C142.592712,24.196840 141.873703,24.270884 140.686996,23.697975 
	C137.791580,24.419024 134.896149,25.140074 131.373260,26.058889 
	C130.936630,26.082619 130.500015,26.106348 129.679657,25.602516 
	C128.786545,26.042496 127.893417,26.482475 126.435066,27.354076 
	C125.304733,27.602215 124.174393,27.850351 122.616425,27.576302 
	C118.363556,28.516249 113.573090,28.281601 110.642570,33.075153 
	C110.642570,33.075153 110.240913,33.083149 109.752815,33.197357 
	C109.510330,33.418877 109.267845,33.640400 108.424019,34.250286 
	C102.298622,38.506500 96.173233,42.762711 89.476562,46.805374 
	C87.293518,48.805267 85.110474,50.805157 82.943634,52.956409 
	C82.943634,52.956409 82.791420,52.954285 82.460884,53.208717 
	C82.254539,53.400078 82.088295,53.621540 81.982269,53.951061 
	C81.982269,53.951061 81.902260,53.960155 81.222229,54.071831 
	C79.487488,56.383278 77.752747,58.694729 75.917603,61.497734 
	C75.653122,61.681965 75.388649,61.866199 74.401772,62.125919 
	C73.639931,63.533306 72.878082,64.940697 72.063507,66.882454 
	C71.736458,67.267151 71.409416,67.651848 70.377785,68.118004 
	C64.203629,74.224518 62.670895,82.534325 60.060463,90.283760 
	C59.243057,92.710350 59.507980,95.501518 59.223866,98.766792 
	C59.240387,99.194946 59.256912,99.623108 59.035923,100.867638 
	C58.639954,104.579247 58.243984,108.290855 57.121971,112.201248 
	C55.633923,114.953468 54.598343,117.665161 57.965080,120.858665 
	C58.150429,123.169014 58.335773,125.479370 57.872971,128.159042 
	C58.189968,129.437592 58.506966,130.716125 58.991528,132.699280 
	C59.117504,133.411865 59.243477,134.124466 58.843712,135.125809 
	C59.170528,135.749481 59.497341,136.373169 60.023930,137.687927 
	C60.173542,138.390854 60.323151,139.093781 59.921757,140.079758 
	C60.230007,140.718277 60.538254,141.356812 61.088161,142.585266 
	C61.225388,142.987106 61.362614,143.388962 60.938305,144.076294 
	C61.264206,144.716919 61.590107,145.357559 62.142403,146.271423 
	C62.142403,146.271423 62.121666,146.625671 62.059662,147.481216 
	C62.889603,151.683121 62.544510,156.401581 67.645920,159.208359 
	C67.773621,159.776123 67.901321,160.343903 68.178055,161.339371 
	C68.320770,161.618011 68.531563,161.828491 68.980095,162.457733 
	C69.015671,162.625916 69.051254,162.794083 68.591888,163.332581 
	C69.346680,164.552597 70.101471,165.772614 71.040161,167.380966 
	C71.040161,167.380966 71.067474,167.809769 71.201118,168.283661 
	C71.343590,168.595840 71.569290,168.826614 72.097427,169.299301 
	C72.097427,169.299301 72.109695,169.689743 72.058571,170.482513 
	C73.443382,172.606903 74.828186,174.731277 76.111893,176.923935 
	C76.111893,176.923935 76.152023,176.808731 76.069481,177.578842 
	C77.812439,180.017975 79.555397,182.457092 81.727341,185.098007 
	C81.945351,185.353638 82.037766,185.648605 82.017128,186.730453 
	C83.076866,188.109818 84.136604,189.489182 85.095657,190.904236 
	C85.095657,190.904236 85.137917,190.806122 85.065392,191.569244 
	C87.734459,195.364670 90.403519,199.160095 93.002983,202.991898 
	C93.002983,202.991898 93.047920,202.927475 93.031181,203.687210 
	C94.689369,206.704025 94.314423,211.210052 99.009384,211.982498 
	C99.009384,211.982498 99.043777,211.909653 99.191597,212.344955 
	C99.338150,212.627930 99.555580,212.837311 100.218506,213.426071 
	C100.486450,213.935486 100.754402,214.444901 101.012169,215.743042 
	C102.098854,217.128998 103.185539,218.514954 104.819786,220.285065 
	C108.640411,226.137955 112.348717,232.068085 116.307281,237.826141 
	C122.678009,247.092941 129.373398,256.139404 135.629013,265.481567 
	C140.522903,272.790100 144.965622,280.401154 149.594116,287.886871 
	C152.152206,292.024078 153.035950,291.992462 155.598862,287.975555 
	C157.735001,284.627411 160.051361,281.391144 162.361877,278.158203 
	C166.053894,272.992188 170.003296,267.999237 173.494751,262.702972 
	C181.294327,250.871613 188.795090,238.843475 196.574326,226.998474 
	C204.015198,215.668655 211.813995,204.571976 219.158264,193.181213 
	C225.575272,183.228622 231.578812,173.009445 238.498779,162.861496 
	C241.265030,155.676956 244.049698,148.499252 246.732742,141.283768 
	C246.844620,140.982925 246.007690,140.329269 245.746307,139.213211 
	C245.883041,138.808563 246.019760,138.403931 246.801895,137.865982 
	C246.776672,136.872772 246.751465,135.879547 246.745316,134.153946 
	C246.886658,133.435699 247.027985,132.717468 247.900925,131.788910 
	C247.949280,128.859955 247.997635,125.930992 247.900253,122.340706 
	C247.956512,121.895744 248.012772,121.450775 248.764603,120.850281 
	C250.663025,118.964165 250.919708,117.287643 248.003052,115.340172 
	C248.032623,114.894424 248.062195,114.448685 248.618622,113.398888 
	C249.215530,103.238968 247.111160,93.498093 243.449463,84.145271 
	C241.904572,80.199203 239.214249,76.701569 236.986053,72.983459 
	C236.986053,72.983459 237.013504,72.929169 237.003723,72.176964 
	C236.288773,71.137032 235.573822,70.097107 234.367249,68.838722 
	C234.202728,68.338348 234.038208,67.837975 233.884933,66.567421 
	C232.376450,61.507748 230.034393,57.115494 224.301468,54.964016 
	C224.059128,54.769890 223.930817,54.517742 223.904434,53.490799 
	C221.545609,51.365803 219.186783,49.240807 216.925552,47.065037 
	C216.925552,47.065037 216.883759,47.166798 216.882263,46.437729 
	C215.193481,45.317059 213.504715,44.196388 211.418777,43.013195 
	C211.138153,42.933601 210.947998,42.756729 210.838913,41.678822 
	C209.790161,41.158470 208.741409,40.638119 207.298004,40.083294 
	C207.298004,40.083294 206.996033,39.826874 206.855469,39.182983 
	C206.137650,38.826614 205.419846,38.470245 204.297318,38.074211 
	C204.297318,38.074211 203.969452,37.833660 203.708572,37.456501 
	C203.482361,37.234116 203.212555,37.098167 202.975769,37.016396 
z"/>
<path fill="#0A73B9" opacity="1.000000" stroke="none" 
	d="
M59.273434,100.051262 
	C59.256912,99.623108 59.240387,99.194946 59.538170,98.210159 
	C63.595768,87.781189 67.339066,77.908867 71.082367,68.036545 
	C71.409416,67.651848 71.736458,67.267151 72.433411,66.515091 
	C73.576935,64.781960 74.350555,63.416195 75.124176,62.050434 
	C75.388649,61.866199 75.653122,61.681965 76.259369,61.083916 
	C78.368179,58.433449 80.135223,56.196800 81.902260,53.960155 
	C81.902260,53.960155 81.982269,53.951061 82.171638,53.821312 
	C82.618225,53.512203 82.761696,53.266445 82.791420,52.954285 
	C82.791420,52.954285 82.943634,52.956409 83.227737,52.724014 
	C85.690506,50.667393 87.869179,48.843159 90.047844,47.018921 
	C96.173233,42.762711 102.298622,38.506500 108.990417,34.052776 
	C109.784843,33.597893 110.012878,33.340523 110.240913,33.083149 
	C110.240913,33.083149 110.642570,33.075153 111.207779,33.033981 
	C115.470551,31.644854 119.168114,30.296892 123.299179,28.970432 
	C125.204475,28.808348 126.685928,28.681328 128.146545,28.432205 
	C139.529037,26.490797 150.797150,23.613247 162.544083,25.920771 
	C169.327530,27.253284 176.238571,27.936348 183.065887,28.934410 
	C183.039581,28.957102 183.018951,28.891022 183.180023,29.164898 
	C183.933472,29.609837 184.525833,29.780899 185.456909,30.089132 
	C188.863388,31.123941 191.931137,32.021580 194.998901,32.919220 
	C194.998901,32.919220 195.310745,33.124252 195.700821,33.404449 
	C198.375259,34.820827 200.659607,35.957005 202.943970,37.093182 
	C202.943970,37.093182 202.975769,37.016396 203.036377,37.258568 
	C203.312820,37.808266 203.603638,37.919239 203.969452,37.833660 
	C203.969452,37.833660 204.297318,38.074211 204.583481,38.432899 
	C205.578445,39.136681 206.287231,39.481777 206.996033,39.826874 
	C206.996033,39.826874 207.298004,40.083294 207.674347,40.383186 
	C208.983231,41.282913 209.915771,41.882748 210.848312,42.482582 
	C210.947998,42.756729 211.138153,42.933601 211.686768,43.391602 
	C213.597763,44.902267 215.240768,46.034531 216.883759,47.166794 
	C216.883759,47.166798 216.925552,47.065037 216.930695,47.434364 
	C219.262726,49.938324 221.589630,52.072952 223.916550,54.207581 
	C223.930817,54.517742 224.059128,54.769890 224.646637,55.364113 
	C227.952438,59.622002 230.913055,63.479797 233.873688,67.337601 
	C234.038208,67.837975 234.202728,68.338348 234.688721,69.276894 
	C235.677963,70.786430 236.345734,71.857796 237.013504,72.929169 
	C237.013504,72.929169 236.986053,72.983459 237.073761,73.352928 
	C241.152588,82.827042 245.712891,91.755867 245.702286,102.177368 
	C245.618820,102.876236 245.739639,103.431236 245.925323,104.197197 
	C245.990158,104.408157 246.051025,104.845337 246.031799,105.323952 
	C245.352768,118.552223 244.692963,131.301880 244.018784,144.430084 
	C241.924622,150.841782 239.844833,156.874908 237.765030,162.908035 
	C231.578812,173.009445 225.575272,183.228622 219.158264,193.181213 
	C211.813995,204.571976 204.015198,215.668655 196.574326,226.998474 
	C188.795090,238.843475 181.294327,250.871613 173.494751,262.702972 
	C170.003296,267.999237 166.053894,272.992188 162.361877,278.158203 
	C160.051361,281.391144 157.735001,284.627411 155.598862,287.975555 
	C153.035950,291.992462 152.152206,292.024078 149.594116,287.886871 
	C144.965622,280.401154 140.522903,272.790100 135.629013,265.481567 
	C129.373398,256.139404 122.678009,247.092941 116.307281,237.826141 
	C112.348717,232.068085 108.640411,226.137955 104.449112,219.756866 
	C103.059738,217.803879 102.041039,216.379089 101.022354,214.954315 
	C100.754402,214.444901 100.486450,213.935486 100.019287,212.952774 
	C99.649895,212.168854 99.391129,211.978912 99.043777,211.909653 
	C99.043777,211.909653 99.009384,211.982498 98.950272,211.630829 
	C96.943420,208.495255 94.995667,205.711365 93.047920,202.927475 
	C93.047920,202.927475 93.002983,202.991898 92.940804,202.625793 
	C90.298386,198.441833 87.718147,194.623978 85.137909,190.806122 
	C85.137917,190.806122 85.095657,190.904236 85.049309,190.560898 
	C84.003502,188.806015 83.004036,187.394470 82.004578,185.982925 
	C82.037766,185.648605 81.945351,185.353638 81.392776,184.660217 
	C79.422821,181.751190 77.787422,179.279968 76.152023,176.808731 
	C76.152023,176.808731 76.111893,176.923935 76.086380,176.547302 
	C74.743805,174.010361 73.426750,171.850052 72.109695,169.689743 
	C72.109695,169.689743 72.097427,169.299301 71.982803,168.873718 
	C71.601280,168.235336 71.334373,168.022552 71.067474,167.809769 
	C71.067474,167.809769 71.040161,167.380966 70.999275,166.851791 
	C70.334534,165.202484 69.710686,164.082367 69.086838,162.962234 
	C69.051254,162.794083 69.015671,162.625916 68.916870,161.960419 
	C68.578773,161.279297 68.303902,161.095474 68.029022,160.911667 
	C67.901321,160.343903 67.773621,159.776123 67.275314,158.719482 
	C65.593758,154.498718 64.282791,150.766846 62.978844,146.607727 
	C62.973038,145.348587 63.106205,144.483475 62.925575,143.689743 
	C60.051147,131.058823 57.774559,118.402084 59.930527,105.357727 
	C60.209278,103.671181 59.516293,101.824020 59.273434,100.051262 
M120.259750,174.340790 
	C120.561852,174.543640 120.863960,174.746475 121.043457,174.957184 
	C121.043457,174.957184 121.051743,174.834610 121.253883,175.347946 
	C121.551468,175.550522 121.849045,175.753113 122.054031,175.952820 
	C122.054031,175.952820 122.075684,175.862747 122.106491,176.544739 
	C122.772636,177.012512 123.438782,177.480286 124.027306,177.971222 
	C124.027306,177.971222 124.052269,177.894165 124.102379,178.571686 
	C124.773460,179.027420 125.444542,179.483139 126.037437,179.959061 
	C126.037437,179.959061 126.031647,179.878510 126.242126,180.374893 
	C126.534142,180.572525 126.826149,180.770142 127.039482,180.963806 
	C127.039482,180.963806 127.057419,180.887085 127.098000,181.545868 
	C127.720810,182.048096 128.343628,182.550323 129.197067,183.468903 
	C129.396606,183.727875 129.649887,183.913498 130.066635,184.658081 
	C130.705017,185.117462 131.343399,185.576859 132.238602,186.473587 
	C132.529800,186.638367 132.820999,186.803146 133.036194,186.976746 
	C133.036194,186.976746 133.047653,186.901093 133.106140,187.591187 
	C133.801910,188.045273 134.497681,188.499359 135.618774,189.048431 
	C135.902176,189.203217 136.046265,189.442047 136.199341,190.275009 
	C136.448181,190.515182 136.697021,190.755356 137.264679,191.586044 
	C139.141663,192.773758 141.018631,193.961472 142.944489,195.047592 
	C142.944489,195.047592 142.846649,195.103653 142.947815,195.798828 
	C146.178085,198.879211 149.408356,201.959579 152.896057,205.285431 
	C155.131851,202.786728 157.189545,200.487061 159.131821,198.114197 
	C159.131821,198.114197 159.187469,198.239044 159.837173,197.987503 
	C162.981689,195.026611 166.126221,192.065735 169.766113,188.911835 
	C170.216629,188.378021 170.667145,187.844208 171.698425,187.038437 
	C172.579483,186.134277 173.460526,185.230103 173.984451,184.067398 
	C173.984451,184.067398 174.331039,184.341293 174.932907,184.025940 
	C177.695938,181.045700 180.458954,178.065445 183.733765,174.890045 
	C184.184311,174.330658 184.634857,173.771271 185.775131,173.076996 
	C187.188019,171.385941 188.600906,169.694870 190.501968,167.785690 
	C190.654388,167.472198 190.806793,167.158722 191.474564,166.545944 
	C192.056610,165.751343 192.638657,164.956741 193.111267,164.122345 
	C193.111267,164.122345 193.164078,164.226120 193.854019,164.108490 
	C195.296402,162.113754 196.738785,160.119019 198.080963,158.086792 
	C198.080963,158.086792 198.125244,158.184174 198.830673,158.105225 
	C199.927933,156.430756 201.025208,154.756287 202.029633,153.020187 
	C202.029633,153.020187 202.085464,153.116638 202.688828,152.800842 
	C204.405655,149.869675 206.122482,146.938507 207.977097,143.565079 
	C207.977097,143.565079 208.052826,143.108078 208.688828,142.782059 
	C213.518906,133.002472 215.618378,122.844284 213.038330,111.346283 
	C212.977692,110.897041 212.917053,110.447800 212.919662,109.218788 
	C210.324341,102.755898 207.729019,96.293007 205.088013,89.943153 
	C205.088013,89.943153 205.188766,89.874496 205.061050,89.210915 
	C204.068115,87.768265 203.075180,86.325607 202.030090,84.973167 
	C202.030090,84.973167 202.121857,84.923798 201.917862,84.246803 
	C200.644836,82.747261 199.371796,81.247719 197.997482,79.336723 
	C197.853897,79.061676 197.627655,78.909576 197.034348,78.275299 
	C195.726959,77.080559 194.419556,75.885818 192.971329,74.289146 
	C192.782959,74.049164 192.536316,73.924149 192.086212,73.207863 
	C190.065933,71.781227 188.045639,70.354584 185.675644,68.336617 
	C182.103271,66.437828 178.530914,64.539047 174.789566,62.003136 
	C173.807556,61.705078 172.825562,61.407017 171.942535,61.078583 
	C171.942535,61.078583 171.947540,61.182007 171.594360,60.524765 
	C169.666092,60.119659 167.737808,59.714550 165.859436,59.437859 
	C165.859436,59.437859 165.734451,59.495834 165.519989,58.720379 
	C157.684479,58.314102 149.851669,57.767796 142.011230,57.615482 
	C140.373169,57.583664 138.706879,59.006237 136.294922,59.979721 
	C124.834557,62.237663 116.104507,69.072403 107.355980,77.155968 
	C106.624367,78.437347 105.892761,79.718719 104.896935,81.292358 
	C104.896935,81.292358 104.886871,81.686226 104.302689,82.048027 
	C103.169334,83.679054 102.035980,85.310081 100.979843,86.990395 
	C100.979843,86.990395 100.938828,86.908485 100.298248,87.207649 
	C97.884071,92.819237 95.469887,98.430817 92.468666,104.549149 
	C92.062874,106.285019 91.284157,108.027870 91.316551,109.755531 
	C91.449150,116.828583 91.829193,123.896996 92.772415,131.338196 
	C93.809593,134.331711 94.846771,137.325241 95.895195,140.695999 
	C95.895195,140.695999 96.111336,141.005402 96.154953,141.677139 
	C97.049675,143.183640 97.944397,144.690155 98.884407,146.076477 
	C98.884407,146.076477 98.779678,146.150818 98.915421,146.793457 
	C99.607758,147.868149 100.300102,148.942856 101.069626,150.504532 
	C101.219254,150.835526 101.474403,151.022552 102.063568,151.740753 
	C103.341652,153.249130 104.619736,154.757523 105.982635,156.688889 
	C105.982635,156.688889 106.279068,157.002365 106.312874,157.674896 
	C107.489174,158.856689 108.665474,160.038467 109.898643,161.112946 
	C109.898643,161.112946 109.786896,161.160461 110.009064,161.798462 
	C110.985550,163.243378 111.962044,164.688309 113.199333,166.713348 
	C114.489746,167.968475 115.780159,169.223602 117.248802,171.110657 
	C117.568497,171.390457 117.888191,171.670242 118.050713,171.940964 
	C118.050713,171.940964 118.079880,171.786255 118.267525,172.319717 
	C118.571938,172.527206 118.876350,172.734680 119.049522,172.951431 
	C119.049522,172.951431 119.058647,172.820175 119.264015,173.340729 
	C119.569077,173.541367 119.874138,173.742004 120.048676,173.951675 
	C120.048676,173.951675 120.057800,173.821152 120.259750,174.340790 
z"/>
<path fill="#0F5DAB" opacity="1.000000" stroke="none" 
	d="
M183.092178,28.911716 
	C176.238571,27.936348 169.327530,27.253284 162.544083,25.920771 
	C150.797150,23.613247 139.529037,26.490797 128.146545,28.432205 
	C126.685928,28.681328 125.204475,28.808348 123.344635,28.758018 
	C122.956589,28.524103 123.044060,28.098488 123.044060,28.098488 
	C124.174393,27.850351 125.304733,27.602215 127.049309,27.164951 
	C128.463501,26.693909 129.263443,26.411993 130.063385,26.130077 
	C130.500015,26.106348 130.936630,26.082619 132.082520,25.998058 
	C135.579422,25.406460 138.367050,24.875692 141.154694,24.344925 
	C141.873703,24.270884 142.592712,24.196840 144.122025,24.057930 
	C152.620300,24.274687 160.308258,24.556309 167.996231,24.837933 
	C168.718597,24.964041 169.440979,25.090147 170.777832,25.452431 
	C172.260803,25.743233 173.129288,25.797859 173.997787,25.852484 
	C174.404861,25.979212 174.811951,26.105940 175.737915,26.497820 
	C176.837357,26.792912 177.417923,26.822851 177.998474,26.852793 
	C178.407257,26.974966 178.816025,27.097139 179.751892,27.508751 
	C181.216721,28.169363 182.154449,28.540539 183.092178,28.911716 
z"/>
<path fill="#F4F7F8" opacity="1.000000" stroke="none" 
	d="
M246.051025,104.845337 
	C246.051025,104.845337 245.990158,104.408157 245.999573,103.874359 
	C245.974838,102.904869 245.940720,102.469193 245.906586,102.033508 
	C245.712891,91.755867 241.152588,82.827042 237.103027,73.361252 
	C239.214249,76.701569 241.904572,80.199203 243.449463,84.145271 
	C247.111160,93.498093 249.215530,103.238968 248.237076,113.311874 
	C247.254028,110.431694 246.652527,107.638519 246.051025,104.845337 
z"/>
<path fill="#1460AD" opacity="1.000000" stroke="none" 
	d="
M59.154678,100.459450 
	C59.516293,101.824020 60.209278,103.671181 59.930527,105.357727 
	C57.774559,118.402084 60.051147,131.058823 62.925575,143.689743 
	C63.106205,144.483475 62.973038,145.348587 62.770256,146.497498 
	C62.554657,146.814499 62.121666,146.625671 62.121666,146.625671 
	C62.121666,146.625671 62.142403,146.271423 62.053749,145.844788 
	C61.810009,144.875717 61.654926,144.333252 61.499840,143.790802 
	C61.362614,143.388962 61.225388,142.987106 61.009640,142.004486 
	C60.778332,140.881363 60.625546,140.339035 60.472763,139.796707 
	C60.323151,139.093781 60.173542,138.390854 59.969357,137.054413 
	C59.733009,135.892960 59.551231,135.365005 59.369453,134.837051 
	C59.243477,134.124466 59.117504,133.411865 58.963692,131.993835 
	C58.797611,130.122162 58.659363,128.955948 58.521118,127.789719 
	C58.335773,125.479370 58.150429,123.169014 57.956043,119.986946 
	C57.914009,116.744308 57.881012,114.373383 57.848015,112.002464 
	C58.243984,108.290855 58.639954,104.579247 59.154678,100.459450 
z"/>
<path fill="#F9FAF9" opacity="1.000000" stroke="none" 
	d="
M70.730072,68.077271 
	C67.339066,77.908867 63.595768,87.781189 59.564972,97.889664 
	C59.507980,95.501518 59.243057,92.710350 60.060463,90.283760 
	C62.670895,82.534325 64.203629,74.224518 70.730072,68.077271 
z"/>
<path fill="#1564B0" opacity="1.000000" stroke="none" 
	d="
M246.031799,105.323952 
	C246.652527,107.638519 247.254028,110.431694 247.973663,113.613907 
	C248.062195,114.448685 248.032623,114.894424 248.005981,116.082809 
	C248.028946,118.218910 248.048996,119.612358 248.069031,121.005814 
	C248.012772,121.450775 247.956512,121.895744 247.861206,123.066505 
	C247.604523,126.527939 247.386917,129.263580 247.169312,131.999222 
	C247.027985,132.717468 246.886658,133.435699 246.546356,134.786865 
	C246.283752,136.279602 246.220123,137.139450 246.156494,137.999283 
	C246.019760,138.403931 245.883041,138.808563 245.470963,139.793549 
	C244.808136,141.599762 244.420654,142.825653 244.033157,144.051544 
	C244.692963,131.301880 245.352768,118.552223 246.031799,105.323952 
z"/>
<path fill="#F6F9F9" opacity="1.000000" stroke="none" 
	d="
M167.892838,24.469252 
	C160.308258,24.556309 152.620300,24.274687 144.466263,23.941788 
	C144.341293,23.358925 144.714828,22.345707 145.018723,22.366188 
	C152.613419,22.878084 160.200790,23.498964 167.892838,24.469252 
z"/>
<path fill="#F4F7F8" opacity="1.000000" stroke="none" 
	d="
M244.018784,144.430084 
	C244.420654,142.825653 244.808136,141.599762 245.404205,140.106934 
	C246.007690,140.329269 246.844620,140.982925 246.732742,141.283768 
	C244.049698,148.499252 241.265030,155.676956 238.131912,162.884766 
	C239.844833,156.874908 241.924622,150.841782 244.018784,144.430084 
z"/>
<path fill="#F6F9F9" opacity="1.000000" stroke="none" 
	d="
M183.065887,28.934406 
	C182.154449,28.540539 181.216721,28.169363 180.067245,27.565857 
	C184.860062,28.965757 189.864624,30.597992 194.934052,32.574722 
	C191.931137,32.021580 188.863388,31.123941 185.328705,29.790705 
	C184.247513,29.200411 183.633240,29.045717 183.018951,28.891022 
	C183.018951,28.891022 183.039581,28.957102 183.065887,28.934406 
z"/>
<path fill="#F4F7F8" opacity="1.000000" stroke="none" 
	d="
M233.879303,66.952507 
	C230.913055,63.479797 227.952438,59.622002 224.851562,55.437149 
	C230.034393,57.115494 232.376450,61.507748 233.879303,66.952507 
z"/>
<path fill="#F9FAF9" opacity="1.000000" stroke="none" 
	d="
M85.101654,191.187683 
	C87.718147,194.623978 90.298386,198.441833 92.975601,202.607605 
	C90.403519,199.160095 87.734459,195.364670 85.101654,191.187683 
z"/>
<path fill="#F6F9F9" opacity="1.000000" stroke="none" 
	d="
M122.830246,27.837395 
	C123.044060,28.098488 122.956589,28.524103 122.911133,28.736519 
	C119.168114,30.296892 115.470551,31.644854 111.386772,32.942825 
	C113.573090,28.281601 118.363556,28.516249 122.830246,27.837395 
z"/>
<path fill="#F9FAF9" opacity="1.000000" stroke="none" 
	d="
M62.090664,147.053436 
	C62.121666,146.625671 62.554657,146.814499 62.763245,146.924744 
	C64.282791,150.766846 65.593758,154.498718 67.005875,158.596588 
	C62.544510,156.401581 62.889603,151.683121 62.090664,147.053436 
z"/>
<path fill="#F4F7F8" opacity="1.000000" stroke="none" 
	d="
M223.910492,53.849190 
	C221.589630,52.072952 219.262726,49.938324 216.881897,47.459755 
	C219.186783,49.240807 221.545609,51.365803 223.910492,53.849190 
z"/>
<path fill="#F9FAF9" opacity="1.000000" stroke="none" 
	d="
M93.039551,203.307343 
	C94.995667,205.711365 96.943420,208.495255 98.986885,211.614014 
	C94.314423,211.210052 94.689369,206.704025 93.039551,203.307343 
z"/>
<path fill="#F9FAF9" opacity="1.000000" stroke="none" 
	d="
M81.562241,54.015991 
	C80.135223,56.196800 78.368179,58.433449 76.309570,60.838135 
	C77.752747,58.694729 79.487488,56.383278 81.562241,54.015991 
z"/>
<path fill="#F9FAF9" opacity="1.000000" stroke="none" 
	d="
M89.762207,46.912148 
	C87.869179,48.843159 85.690506,50.667393 83.219635,52.648335 
	C85.110474,50.805157 87.293518,48.805267 89.762207,46.912148 
z"/>
<path fill="#F6F9F9" opacity="1.000000" stroke="none" 
	d="
M140.920837,24.021450 
	C138.367050,24.875692 135.579422,25.406460 132.396255,25.899174 
	C134.896149,25.140074 137.791580,24.419024 140.920837,24.021450 
z"/>
<path fill="#F9FAF9" opacity="1.000000" stroke="none" 
	d="
M57.484993,112.101852 
	C57.881012,114.373383 57.914009,116.744308 57.883568,119.555374 
	C54.598343,117.665161 55.633923,114.953468 57.484993,112.101852 
z"/>
<path fill="#F9FAF9" opacity="1.000000" stroke="none" 
	d="
M76.110748,177.193787 
	C77.787422,179.279968 79.422821,181.751190 81.178284,184.559326 
	C79.555397,182.457092 77.812439,180.017975 76.110748,177.193787 
z"/>
<path fill="#F6F9F9" opacity="1.000000" stroke="none" 
	d="
M202.918945,36.721123 
	C200.659607,35.957005 198.375259,34.820827 195.887390,33.401089 
	C198.087234,34.194706 200.490585,35.271885 202.918945,36.721123 
z"/>
<path fill="#F4F7F8" opacity="1.000000" stroke="none" 
	d="
M247.535110,131.894073 
	C247.386917,129.263580 247.604523,126.527939 247.934052,123.397171 
	C247.997635,125.930992 247.949280,128.859955 247.535110,131.894073 
z"/>
<path fill="#F9FAF9" opacity="1.000000" stroke="none" 
	d="
M72.084137,170.086121 
	C73.426750,171.850052 74.743805,174.010361 76.136932,176.513168 
	C74.828186,174.731277 73.443382,172.606903 72.084137,170.086121 
z"/>
<path fill="#F4F7F8" opacity="1.000000" stroke="none" 
	d="
M216.883011,46.802261 
	C215.240768,46.034531 213.597763,44.902267 211.885345,43.422863 
	C213.504715,44.196388 215.193481,45.317059 216.883011,46.802261 
z"/>
<path fill="#F4F7F8" opacity="1.000000" stroke="none" 
	d="
M248.416824,120.928047 
	C248.048996,119.612358 248.028946,118.218910 248.077026,116.411774 
	C250.919708,117.287643 250.663025,118.964165 248.416824,120.928047 
z"/>
<path fill="#F9FAF9" opacity="1.000000" stroke="none" 
	d="
M101.017258,215.348679 
	C102.041039,216.379089 103.059738,217.803879 104.175323,219.564789 
	C103.185539,218.514954 102.098854,217.128998 101.017258,215.348679 
z"/>
<path fill="#F9FAF9" opacity="1.000000" stroke="none" 
	d="
M82.010849,186.356689 
	C83.004036,187.394470 84.003502,188.806015 85.099648,190.543060 
	C84.136604,189.489182 83.076866,188.109818 82.010849,186.356689 
z"/>
<path fill="#F9FAF9" opacity="1.000000" stroke="none" 
	d="
M74.762970,62.088177 
	C74.350555,63.416195 73.576935,64.781960 72.459778,66.247902 
	C72.878082,64.940697 73.639931,63.533306 74.762970,62.088177 
z"/>
<path fill="#F9FAF9" opacity="1.000000" stroke="none" 
	d="
M58.197044,127.974380 
	C58.659363,128.955948 58.797611,130.122162 58.879913,131.641541 
	C58.506966,130.716125 58.189968,129.437592 58.197044,127.974380 
z"/>
<path fill="#F9FAF9" opacity="1.000000" stroke="none" 
	d="
M68.839363,163.147400 
	C69.710686,164.082367 70.334534,165.202484 70.907326,166.657623 
	C70.101471,165.772614 69.346680,164.552597 68.839363,163.147400 
z"/>
<path fill="#F4F7F8" opacity="1.000000" stroke="none" 
	d="
M237.008606,72.553070 
	C236.345734,71.857796 235.677963,70.786430 234.934540,69.386124 
	C235.573822,70.097107 236.288773,71.137032 237.008606,72.553070 
z"/>
<path fill="#F6F9F9" opacity="1.000000" stroke="none" 
	d="
M173.933105,25.529757 
	C173.129288,25.797859 172.260803,25.743233 171.144379,25.470718 
	C171.887100,25.237562 172.877762,25.222296 173.933105,25.529757 
z"/>
<path fill="#F4F7F8" opacity="1.000000" stroke="none" 
	d="
M246.479187,137.932632 
	C246.220123,137.139450 246.283752,136.279602 246.536819,135.153046 
	C246.751465,135.879547 246.776672,136.872772 246.479187,137.932632 
z"/>
<path fill="#F6F9F9" opacity="1.000000" stroke="none" 
	d="
M129.871521,25.866295 
	C129.263443,26.411993 128.463501,26.693909 127.331924,26.949139 
	C127.893417,26.482475 128.786545,26.042496 129.871521,25.866295 
z"/>
<path fill="#F6F9F9" opacity="1.000000" stroke="none" 
	d="
M210.843613,42.080704 
	C209.915771,41.882748 208.983231,41.282913 207.871674,40.400421 
	C208.741409,40.638119 209.790161,41.158470 210.843613,42.080704 
z"/>
<path fill="#F6F9F9" opacity="1.000000" stroke="none" 
	d="
M206.925751,39.504929 
	C206.287231,39.481777 205.578445,39.136681 204.785828,38.452732 
	C205.419846,38.470245 206.137650,38.826614 206.925751,39.504929 
z"/>
<path fill="#F6F9F9" opacity="1.000000" stroke="none" 
	d="
M177.946533,26.557001 
	C177.417923,26.822851 176.837357,26.792912 176.053741,26.549042 
	C176.531982,26.310480 177.213287,26.285845 177.946533,26.557001 
z"/>
<path fill="#F9FAF9" opacity="1.000000" stroke="none" 
	d="
M61.219074,143.933548 
	C61.654926,144.333252 61.810009,144.875717 61.940548,145.708176 
	C61.590107,145.357559 61.264206,144.716919 61.219074,143.933548 
z"/>
<path fill="#F9FAF9" opacity="1.000000" stroke="none" 
	d="
M60.197258,139.938232 
	C60.625546,140.339035 60.778332,140.881363 60.888809,141.709503 
	C60.538254,141.356812 60.230007,140.718277 60.197258,139.938232 
z"/>
<path fill="#F9FAF9" opacity="1.000000" stroke="none" 
	d="
M59.106583,134.981430 
	C59.551231,135.365005 59.733009,135.892960 59.869469,136.708878 
	C59.497341,136.373169 59.170528,135.749481 59.106583,134.981430 
z"/>
<path fill="#F9FAF9" opacity="1.000000" stroke="none" 
	d="
M99.117691,212.127304 
	C99.391129,211.978912 99.649895,212.168854 99.831978,212.726288 
	C99.555580,212.837311 99.338150,212.627930 99.117691,212.127304 
z"/>
<path fill="#F6F9F9" opacity="1.000000" stroke="none" 
	d="
M109.996864,33.140251 
	C110.012878,33.340523 109.784843,33.597893 109.291092,33.858597 
	C109.267845,33.640400 109.510330,33.418877 109.996864,33.140251 
z"/>
<path fill="#F9FAF9" opacity="1.000000" stroke="none" 
	d="
M82.626152,53.081501 
	C82.761696,53.266445 82.618225,53.512203 82.161575,53.782330 
	C82.088295,53.621540 82.254539,53.400078 82.626152,53.081501 
z"/>
<path fill="#F9FAF9" opacity="1.000000" stroke="none" 
	d="
M68.103539,161.125519 
	C68.303902,161.095474 68.578773,161.279297 68.832039,161.716949 
	C68.531563,161.828491 68.320770,161.618011 68.103539,161.125519 
z"/>
<path fill="#F9FAF9" opacity="1.000000" stroke="none" 
	d="
M71.134293,168.046722 
	C71.334373,168.022552 71.601280,168.235336 71.873207,168.712051 
	C71.569290,168.826614 71.343590,168.595840 71.134293,168.046722 
z"/>
<path fill="#F6F9F9" opacity="1.000000" stroke="none" 
	d="
M203.839020,37.645081 
	C203.603638,37.919239 203.312820,37.808266 202.998077,37.274700 
	C203.212555,37.098167 203.482361,37.234116 203.839020,37.645081 
z"/>
<path fill="#F6F5F3" opacity="1.000000" stroke="none" 
	d="
M106.279068,157.002365 
	C106.279068,157.002365 105.982635,156.688889 105.938858,156.109253 
	C104.541740,154.041641 103.188408,152.553650 101.835075,151.065643 
	C101.474403,151.022552 101.219254,150.835526 101.032089,149.875214 
	C100.256264,148.214188 99.517975,147.182510 98.779678,146.150818 
	C98.779678,146.150818 98.884407,146.076477 98.904800,145.760956 
	C97.987244,143.965424 97.049294,142.485413 96.111343,141.005402 
	C96.111336,141.005402 95.895195,140.695999 95.920921,140.065872 
	C93.596031,125.863068 92.369881,112.324890 96.994629,98.926086 
	C98.370071,94.941177 99.627388,90.915489 100.938828,86.908485 
	C100.938828,86.908485 100.979843,86.990395 101.311600,86.943939 
	C102.724518,85.160400 103.805695,83.423309 104.886871,81.686226 
	C104.886871,81.686226 104.896935,81.292358 105.376953,81.091522 
	C106.557167,79.555305 107.257347,78.219925 107.957535,76.884552 
	C116.104507,69.072403 124.834557,62.237663 137.063934,59.844856 
	C147.113663,57.061230 156.419495,57.684784 165.734451,59.495834 
	C165.734451,59.495834 165.859436,59.437859 166.062042,59.647076 
	C168.158936,60.298199 170.053238,60.740101 171.947540,61.182007 
	C171.947540,61.182007 171.942535,61.078583 172.067947,61.336086 
	C173.115082,61.942482 174.036819,62.291374 174.958542,62.640263 
	C178.530914,64.539047 182.103271,66.437828 185.892914,68.976120 
	C188.150589,71.048447 190.190994,72.481262 192.231400,73.914085 
	C192.536316,73.924149 192.782959,74.049164 193.040726,74.866074 
	C194.513000,76.588806 195.915878,77.734619 197.318756,78.880424 
	C197.627655,78.909576 197.853897,79.061676 198.050110,79.907768 
	C199.442429,81.960480 200.782135,83.442139 202.121857,84.923798 
	C202.121857,84.923798 202.030090,84.973167 202.036865,85.308701 
	C203.092026,87.054314 204.140396,88.464409 205.188766,89.874496 
	C205.188766,89.874496 205.088013,89.943153 205.076111,90.281601 
	C206.382065,94.269394 207.611649,97.953857 209.045776,101.556915 
	C210.186325,104.422401 211.576859,107.188400 212.856415,109.998566 
	C212.917053,110.447800 212.977692,110.897041 212.714508,111.988983 
	C212.585114,123.023972 210.943085,133.154861 208.052826,143.108078 
	C208.052826,143.108078 207.977097,143.565079 207.580566,143.848663 
	C205.484512,147.127045 203.784988,150.121841 202.085464,153.116638 
	C202.085464,153.116638 202.029633,153.020187 201.715576,153.063293 
	C200.309418,154.798981 199.217331,156.491577 198.125244,158.184174 
	C198.125244,158.184174 198.080963,158.086792 197.778961,158.113129 
	C196.039352,160.168350 194.601715,162.197235 193.164078,164.226120 
	C193.164078,164.226120 193.111267,164.122345 192.814911,164.135849 
	C191.998779,165.047989 191.479004,165.946609 190.959198,166.845245 
	C190.806793,167.158722 190.654388,167.472198 189.908508,167.931427 
	C187.905167,169.788727 186.495300,171.500320 185.085419,173.211899 
	C184.634857,173.771271 184.184311,174.330658 183.117020,174.994003 
	C179.777206,178.179077 177.054123,181.260193 174.331039,184.341293 
	C174.331039,184.341293 173.984451,184.067398 173.782272,184.129211 
	C172.759277,185.230804 171.938477,186.270599 171.117661,187.310394 
	C170.667145,187.844208 170.216629,188.378021 169.155914,189.006958 
	C165.426285,192.147751 162.306885,195.193390 159.187469,198.239044 
	C159.187469,198.239044 159.131821,198.114197 158.826416,198.124146 
	C156.650055,199.344528 154.779099,200.554977 153.380844,201.459610 
	C149.670425,199.220871 146.258530,197.162262 142.846649,195.103653 
	C142.846649,195.103653 142.944489,195.047592 142.917847,194.739319 
	C140.919403,192.956253 138.947632,191.481476 136.740143,189.963531 
	C136.504425,189.920364 136.051056,189.764908 136.051056,189.764908 
	C136.046265,189.442047 135.902176,189.203217 135.271912,188.726349 
	C134.299255,187.903214 133.673462,187.402161 133.047653,186.901093 
	C133.047653,186.901093 133.036194,186.976746 133.021942,186.770309 
	C133.007706,186.563873 132.939987,186.152786 132.950775,185.759689 
	C131.576904,184.267960 130.192245,183.169327 128.553970,181.977615 
	C127.886055,181.552048 127.471741,181.219574 127.057419,180.887085 
	C127.057419,180.887085 127.039482,180.963806 126.987808,180.707428 
	C126.634644,180.260208 126.333145,180.069366 126.031647,179.878510 
	C126.031647,179.878510 126.037437,179.959061 125.960205,179.673248 
	C125.272736,178.889694 124.662498,178.391937 124.052261,177.894165 
	C124.052269,177.894165 124.027306,177.971222 123.955292,177.680847 
	C123.280746,176.881210 122.678215,176.371979 122.075684,175.862747 
	C122.075684,175.862747 122.054031,175.952820 122.002411,175.694458 
	C121.651100,175.235596 121.351425,175.035095 121.051743,174.834610 
	C121.051743,174.834610 121.043457,174.957184 121.006927,174.689880 
	C120.666191,174.222092 120.362000,174.021622 120.057800,173.821152 
	C120.057800,173.821152 120.048676,173.951675 120.016907,173.682465 
	C119.676308,173.215576 119.367477,173.017868 119.058647,172.820175 
	C119.058647,172.820175 119.049522,172.951431 119.018616,172.679901 
	C118.685097,172.200989 118.382484,171.993622 118.079880,171.786255 
	C118.079880,171.786255 118.050713,171.940964 118.032944,171.636871 
	C117.700310,171.048096 117.385445,170.763397 117.070572,170.478714 
	C115.780159,169.223602 114.489746,167.968475 113.182159,166.124359 
	C113.698891,162.795364 112.655479,161.273254 109.786896,161.160461 
	C109.786896,161.160461 109.898643,161.112946 109.889587,160.819305 
	C108.680038,159.351227 107.479553,158.176804 106.279068,157.002365 
M133.482178,81.989922 
	C133.131012,82.297920 132.779861,82.605919 131.802170,83.301849 
	C126.944908,87.564873 122.087646,91.827896 116.508415,96.138710 
	C116.213394,96.272583 115.784927,96.323318 115.642365,96.552162 
	C104.611313,114.259209 107.631058,131.421127 118.590698,146.389008 
	C121.506683,150.371460 127.330948,152.224472 132.349487,155.177444 
	C132.563934,155.462646 132.778381,155.747864 133.255905,156.459045 
	C133.543518,156.618210 133.831131,156.777374 134.031830,156.970505 
	C134.031830,156.970505 134.075546,156.888046 134.143021,157.597809 
	C135.114792,158.051971 136.086548,158.506134 137.005829,159.001572 
	C137.005829,159.001572 137.036041,158.942108 137.104156,159.673386 
	C138.452240,160.408905 139.800323,161.144440 141.030106,161.947006 
	C141.030106,161.947006 141.113205,161.839386 141.142441,162.540710 
	C143.416489,164.033142 145.690552,165.525589 147.992950,166.993988 
	C147.992950,166.993988 147.986374,167.030045 148.078934,167.728622 
	C149.976593,169.098221 152.781754,172.025864 153.603027,171.547470 
	C156.144287,170.067291 157.930084,167.290115 159.998535,165.001816 
	C159.998535,165.001816 160.013214,165.006927 160.777893,164.985077 
	C165.277954,163.745392 170.325089,163.213211 171.024109,156.994904 
	C171.024109,156.994904 171.081772,157.026566 171.438370,156.869827 
	C171.667038,156.731506 171.842010,156.543289 172.317886,156.014542 
	C172.317886,156.014542 172.763260,155.905777 173.560196,155.951401 
	C179.764969,155.069901 189.844696,143.945007 190.969589,136.364319 
	C190.969589,136.364319 191.181808,135.980118 191.559082,135.678986 
	C191.780334,135.427231 191.901077,135.134064 191.940735,134.383713 
	C191.940735,134.383713 192.102280,134.000092 192.801422,133.853424 
	C193.526520,130.566498 194.251602,127.279579 194.971298,123.135643 
	C195.026306,121.424934 195.081299,119.714218 195.808228,117.848740 
	C195.259521,115.564964 194.710831,113.281181 193.977570,110.376183 
	C193.890686,109.953560 193.803787,109.530937 194.285385,108.723549 
	C193.813309,103.639984 192.492676,98.992485 187.353912,95.869034 
	C187.135818,95.611732 187.019791,95.314568 186.993332,94.246536 
	C184.780411,89.938599 183.323273,84.807037 176.994095,84.996307 
	C176.994095,84.996307 176.972488,85.047218 176.878906,84.354996 
	C176.821274,84.200401 176.807297,83.999870 176.699814,83.897766 
	C169.562653,77.117210 160.297012,76.358902 151.270096,75.298309 
	C149.306747,75.067627 147.094925,76.951721 144.380371,78.075699 
	C143.949921,78.129303 143.519455,78.182915 142.795334,77.739708 
	C142.195938,78.108650 141.596542,78.477592 140.385818,79.047363 
	C139.972244,79.160110 139.558655,79.272858 138.772369,78.789368 
	C137.231567,79.636673 135.690750,80.483986 134.083954,81.669563 
	C134.083954,81.669563 133.900620,81.961395 133.968018,81.989143 
	C133.968018,81.989143 133.979477,81.917160 133.482178,81.989922 
z"/>
<path fill="#F4F7F8" opacity="1.000000" stroke="none" 
	d="
M100.618546,87.058067 
	C99.627388,90.915489 98.370071,94.941177 96.994629,98.926086 
	C92.369881,112.324890 93.596031,125.863068 95.915298,139.877258 
	C94.846771,137.325241 93.809593,134.331711 92.443764,130.685471 
	C92.428642,121.369301 92.742172,112.705849 93.055702,104.042404 
	C95.469887,98.430817 97.884071,92.819237 100.618546,87.058067 
z"/>
<path fill="#F4F7F8" opacity="1.000000" stroke="none" 
	d="
M208.370819,142.945068 
	C210.943085,133.154861 212.585114,123.023972 212.672028,112.328583 
	C215.618378,122.844284 213.518906,133.002472 208.370819,142.945068 
z"/>
<path fill="#F4F7F8" opacity="1.000000" stroke="none" 
	d="
M142.897232,195.451233 
	C146.258530,197.162262 149.670425,199.220871 153.380844,201.459610 
	C154.779099,200.554977 156.650055,199.344528 158.884125,198.160736 
	C157.189545,200.487061 155.131851,202.786728 152.896057,205.285431 
	C149.408356,201.959579 146.178085,198.879211 142.897232,195.451233 
z"/>
<path fill="#F4F7F8" opacity="1.000000" stroke="none" 
	d="
M212.888031,109.608673 
	C211.576859,107.188400 210.186325,104.422401 209.045776,101.556915 
	C207.611649,97.953857 206.382065,94.269394 205.098969,90.225082 
	C207.729019,96.293007 210.324341,102.755898 212.888031,109.608673 
z"/>
<path fill="#0855A8" opacity="1.000000" stroke="none" 
	d="
M165.627228,59.108109 
	C156.419495,57.684784 147.113663,57.061230 137.443268,59.734287 
	C138.706879,59.006237 140.373169,57.583664 142.011230,57.615482 
	C149.851669,57.767796 157.684479,58.314102 165.627228,59.108109 
z"/>
<path fill="#0453A7" opacity="1.000000" stroke="none" 
	d="
M92.762184,104.295776 
	C92.742172,112.705849 92.428642,121.369301 92.116631,130.499939 
	C91.829193,123.896996 91.449150,116.828583 91.316551,109.755531 
	C91.284157,108.027870 92.062874,106.285019 92.762184,104.295776 
z"/>
<path fill="#F4F7F8" opacity="1.000000" stroke="none" 
	d="
M159.512329,198.113281 
	C162.306885,195.193390 165.426285,192.147751 168.908218,189.103470 
	C166.126221,192.065735 162.981689,195.026611 159.512329,198.113281 
z"/>
<path fill="#F4F7F8" opacity="1.000000" stroke="none" 
	d="
M174.631973,184.183624 
	C177.054123,181.260193 179.777206,178.179077 182.861115,175.091583 
	C180.458954,178.065445 177.695938,181.045700 174.631973,184.183624 
z"/>
<path fill="#F4F7F8" opacity="1.000000" stroke="none" 
	d="
M202.387146,152.958740 
	C203.784988,150.121841 205.484512,147.127045 207.511673,144.069794 
	C206.122482,146.938507 204.405655,149.869675 202.387146,152.958740 
z"/>
<path fill="#F4F7F8" opacity="1.000000" stroke="none" 
	d="
M136.975845,190.006699 
	C138.947632,191.481476 140.919403,192.956253 142.893402,194.790115 
	C141.018631,193.961472 139.141663,192.773758 137.173279,191.045380 
	C137.046524,190.338715 137.011185,190.172699 136.975845,190.006699 
z"/>
<path fill="#F4F7F8" opacity="1.000000" stroke="none" 
	d="
M193.509048,164.167297 
	C194.601715,162.197235 196.039352,160.168350 197.829071,158.131866 
	C196.738785,160.119019 195.296402,162.113754 193.509048,164.167297 
z"/>
<path fill="#F4F7F8" opacity="1.000000" stroke="none" 
	d="
M192.158813,73.560974 
	C190.190994,72.481262 188.150589,71.048447 186.067780,69.271790 
	C188.045639,70.354584 190.065933,71.781227 192.158813,73.560974 
z"/>
<path fill="#F4F7F8" opacity="1.000000" stroke="none" 
	d="
M185.430267,173.144440 
	C186.495300,171.500320 187.905167,169.788727 189.664429,168.040466 
	C188.600906,169.694870 187.188019,171.385941 185.430267,173.144440 
z"/>
<path fill="#F4F7F8" opacity="1.000000" stroke="none" 
	d="
M101.949326,151.403198 
	C103.188408,152.553650 104.541740,154.041641 105.896446,155.897766 
	C104.619736,154.757523 103.341652,153.249130 101.949326,151.403198 
z"/>
<path fill="#F4F7F8" opacity="1.000000" stroke="none" 
	d="
M109.897980,161.479462 
	C112.655479,161.273254 113.698891,162.795364 113.051758,165.834305 
	C111.962044,164.688309 110.985550,163.243378 109.897980,161.479462 
z"/>
<path fill="#F4F7F8" opacity="1.000000" stroke="none" 
	d="
M104.594780,81.867126 
	C103.805695,83.423309 102.724518,85.160400 101.272987,86.919296 
	C102.035980,85.310081 103.169334,83.679054 104.594780,81.867126 
z"/>
<path fill="#F4F7F8" opacity="1.000000" stroke="none" 
	d="
M202.019867,84.585304 
	C200.782135,83.442139 199.442429,81.960480 198.100739,80.113495 
	C199.371796,81.247719 200.644836,82.747261 202.019867,84.585304 
z"/>
<path fill="#F4F7F8" opacity="1.000000" stroke="none" 
	d="
M198.477966,158.144699 
	C199.217331,156.491577 200.309418,154.798981 201.761993,153.094116 
	C201.025208,154.756287 199.927933,156.430756 198.477966,158.144699 
z"/>
<path fill="#F4F7F8" opacity="1.000000" stroke="none" 
	d="
M197.176544,78.577866 
	C195.915878,77.734619 194.513000,76.588806 193.111145,75.067039 
	C194.419556,75.885818 195.726959,77.080559 197.176544,78.577866 
z"/>
<path fill="#F4F7F8" opacity="1.000000" stroke="none" 
	d="
M106.295975,157.338623 
	C107.479553,158.176804 108.680038,159.351227 109.861153,160.872955 
	C108.665474,160.038467 107.489174,158.856689 106.295975,157.338623 
z"/>
<path fill="#F4F7F8" opacity="1.000000" stroke="none" 
	d="
M205.124908,89.542709 
	C204.140396,88.464409 203.092026,87.054314 202.062958,85.263588 
	C203.075180,86.325607 204.068115,87.768265 205.124908,89.542709 
z"/>
<path fill="#F4F7F8" opacity="1.000000" stroke="none" 
	d="
M96.133148,141.341278 
	C97.049294,142.485413 97.987244,143.965424 98.882156,145.821045 
	C97.944397,144.690155 97.049675,143.183640 96.133148,141.341278 
z"/>
<path fill="#0855A8" opacity="1.000000" stroke="none" 
	d="
M171.770950,60.853386 
	C170.053238,60.740101 168.158936,60.298199 166.037079,59.582867 
	C167.737808,59.714550 169.666092,60.119659 171.770950,60.853386 
z"/>
<path fill="#F4F7F8" opacity="1.000000" stroke="none" 
	d="
M107.656754,77.020264 
	C107.257347,78.219925 106.557167,79.555305 105.509064,80.945389 
	C105.892761,79.718719 106.624367,78.437347 107.656754,77.020264 
z"/>
<path fill="#F4F7F8" opacity="1.000000" stroke="none" 
	d="
M171.408051,187.174408 
	C171.938477,186.270599 172.759277,185.230804 173.960831,184.258469 
	C173.460526,185.230103 172.579483,186.134277 171.408051,187.174408 
z"/>
<path fill="#F4F7F8" opacity="1.000000" stroke="none" 
	d="
M98.847549,146.472137 
	C99.517975,147.182510 100.256264,148.214188 100.993500,149.631714 
	C100.300102,148.942856 99.607758,147.868149 98.847549,146.472137 
z"/>
<path fill="#F4F7F8" opacity="1.000000" stroke="none" 
	d="
M191.216888,166.695587 
	C191.479004,165.946609 191.998779,165.047989 192.869629,164.155731 
	C192.638657,164.956741 192.056610,165.751343 191.216888,166.695587 
z"/>
<path fill="#0855A8" opacity="1.000000" stroke="none" 
	d="
M174.874054,62.321701 
	C174.036819,62.291374 173.115082,61.942482 172.018463,61.351273 
	C172.825562,61.407017 173.807556,61.705078 174.874054,62.321701 
z"/>
<path fill="#0458AC" opacity="1.000000" stroke="none" 
	d="
M133.076904,187.246140 
	C133.673462,187.402161 134.299255,187.903214 135.059250,188.678864 
	C134.497681,188.499359 133.801910,188.045273 133.076904,187.246140 
z"/>
<path fill="#0458AC" opacity="1.000000" stroke="none" 
	d="
M131.981781,186.036240 
	C131.343399,185.576859 130.705017,185.117462 130.034714,184.325302 
	C130.002792,183.992523 130.045441,183.955215 130.321838,184.054108 
	C131.082474,184.750244 131.566727,185.347458 132.032593,185.966766 
	C132.014236,185.988846 131.981781,186.036240 131.981781,186.036240 
z"/>
<path fill="#0458AC" opacity="1.000000" stroke="none" 
	d="
M127.077713,181.216476 
	C127.471741,181.219574 127.886055,181.552048 128.616852,182.200470 
	C128.933319,182.516388 129.035004,182.968155 129.016724,182.988327 
	C128.998444,183.008499 128.966431,183.052551 128.966431,183.052551 
	C128.343628,182.550323 127.720810,182.048096 127.077713,181.216476 
z"/>
<path fill="#0458AC" opacity="1.000000" stroke="none" 
	d="
M124.077316,178.232925 
	C124.662498,178.391937 125.272736,178.889694 125.999298,179.663162 
	C125.444542,179.483139 124.773460,179.027420 124.077316,178.232925 
z"/>
<path fill="#0458AC" opacity="1.000000" stroke="none" 
	d="
M122.091087,176.203735 
	C122.678215,176.371979 123.280746,176.881210 123.994095,177.669250 
	C123.438782,177.480286 122.772636,177.012512 122.091087,176.203735 
z"/>
<path fill="#0F5DAB" opacity="1.000000" stroke="none" 
	d="
M183.180023,29.164898 
	C183.633240,29.045717 184.247513,29.200411 184.990005,29.653534 
	C184.525833,29.780899 183.933472,29.609837 183.180023,29.164898 
z"/>
<path fill="#1564B0" opacity="1.000000" stroke="none" 
	d="
M245.702301,102.177368 
	C245.940720,102.469193 245.974838,102.904869 245.934723,103.663391 
	C245.739639,103.431236 245.618820,102.876236 245.702301,102.177368 
z"/>
<path fill="#0458AC" opacity="1.000000" stroke="none" 
	d="
M132.939987,186.152786 
	C132.939987,186.152786 133.007706,186.563873 133.059952,186.765900 
	C132.820999,186.803146 132.529800,186.638367 132.110199,186.254913 
	C131.981781,186.036240 132.014236,185.988846 132.256226,186.012970 
	C132.498215,186.037094 132.939987,186.152786 132.939987,186.152786 
z"/>
<path fill="#0458AC" opacity="1.000000" stroke="none" 
	d="
M136.740143,189.963531 
	C137.011185,190.172699 137.046524,190.338715 137.013855,190.750122 
	C136.697021,190.755356 136.448181,190.515182 136.125198,190.019958 
	C136.051056,189.764908 136.504425,189.920364 136.740143,189.963531 
z"/>
<path fill="#0458AC" opacity="1.000000" stroke="none" 
	d="
M121.152817,175.091278 
	C121.351425,175.035095 121.651100,175.235596 122.048706,175.695892 
	C121.849045,175.753113 121.551468,175.550522 121.152817,175.091278 
z"/>
<path fill="#0458AC" opacity="1.000000" stroke="none" 
	d="
M117.159683,170.794678 
	C117.385445,170.763397 117.700310,171.048096 118.111526,171.641418 
	C117.888191,171.670242 117.568497,171.390457 117.159683,170.794678 
z"/>
<path fill="#0458AC" opacity="1.000000" stroke="none" 
	d="
M129.979858,184.009155 
	C129.649887,183.913498 129.396606,183.727875 129.081757,183.260727 
	C128.966431,183.052551 128.998444,183.008499 129.260620,183.061371 
	C129.697006,183.394562 129.871216,183.674896 130.045441,183.955215 
	C130.045441,183.955215 130.002792,183.992523 129.979858,184.009155 
z"/>
<path fill="#0458AC" opacity="1.000000" stroke="none" 
	d="
M118.173698,172.052994 
	C118.382484,171.993622 118.685097,172.200989 119.084236,172.675262 
	C118.876350,172.734680 118.571938,172.527206 118.173698,172.052994 
z"/>
<path fill="#0458AC" opacity="1.000000" stroke="none" 
	d="
M119.161331,173.080444 
	C119.367477,173.017868 119.676308,173.215576 120.082169,173.677948 
	C119.874138,173.742004 119.569077,173.541367 119.161331,173.080444 
z"/>
<path fill="#0458AC" opacity="1.000000" stroke="none" 
	d="
M126.136887,180.126709 
	C126.333145,180.069366 126.634644,180.260208 127.027153,180.709412 
	C126.826149,180.770142 126.534142,180.572525 126.136887,180.126709 
z"/>
<path fill="#0458AC" opacity="1.000000" stroke="none" 
	d="
M120.158783,174.080963 
	C120.362000,174.021622 120.666191,174.222092 121.068222,174.685944 
	C120.863960,174.746475 120.561852,174.543640 120.158783,174.080963 
z"/>
<path fill="#309B3D" opacity="1.000000" stroke="none" 
	d="
M187.005829,94.977554 
	C187.019791,95.314568 187.135818,95.611732 187.652832,96.337357 
	C189.306458,99.868652 190.661194,102.931625 191.763626,106.230057 
	C192.008850,111.460579 192.459656,116.461060 193.037430,121.446823 
	C193.178314,122.662361 193.736053,123.829597 194.149323,125.416443 
	C193.498428,128.542603 192.800354,131.271347 192.102280,134.000092 
	C192.102280,134.000092 191.940735,134.383713 191.702362,134.709198 
	C191.369934,135.349823 191.275879,135.664978 191.181824,135.980118 
	C191.181808,135.980118 190.969589,136.364319 190.660461,136.775299 
	C189.236832,138.801407 188.122345,140.416550 186.734741,142.053680 
	C186.256927,142.367950 186.052261,142.660233 185.544479,143.082825 
	C181.082016,147.444031 176.922638,151.674911 172.763260,155.905777 
	C172.763260,155.905777 172.317886,156.014542 171.934662,156.185867 
	C171.315842,156.524857 171.159286,156.747986 171.081772,157.026566 
	C171.081772,157.026566 171.024109,156.994904 170.678299,157.131149 
	C166.892731,159.847229 163.452972,162.427078 160.013214,165.006927 
	C160.013214,165.006927 159.998535,165.001816 159.713562,165.215973 
	C155.889481,167.929810 152.370255,170.571777 147.986374,167.030045 
	C147.986374,167.030045 147.992950,166.993988 147.802979,166.718048 
	C145.446396,164.907867 143.279800,163.373627 141.113205,161.839386 
	C141.113205,161.839386 141.030106,161.947006 140.929077,161.634171 
	C139.564026,160.528259 138.300034,159.735184 137.036041,158.942108 
	C137.036041,158.942108 137.005829,159.001572 136.885040,158.705688 
	C135.868011,157.902542 134.971771,157.395294 134.075546,156.888046 
	C134.075546,156.888046 134.031830,156.970505 133.971802,156.715454 
	C133.605453,156.317947 133.299149,156.175507 132.992828,156.033066 
	C132.778381,155.747864 132.563934,155.462646 131.900665,154.832825 
	C128.033020,151.212875 124.555984,147.995819 121.206169,144.651352 
	C110.815407,134.277222 108.484352,121.877068 112.481621,108.114960 
	C113.678345,103.994766 115.626488,100.092834 117.230377,96.090912 
	C122.087646,91.827896 126.944908,87.564873 132.368179,83.061829 
	C133.282623,82.520256 133.631058,82.218712 133.979477,81.917160 
	C133.979477,81.917160 133.968018,81.989143 134.300446,81.963127 
	C135.408127,81.536903 136.183395,81.136688 136.910828,80.761665 
	C136.863007,80.786858 136.805420,80.695351 137.221619,80.791954 
	C144.001404,80.264786 150.367645,79.665916 156.726059,78.993340 
	C157.816849,78.877960 158.874405,78.448418 160.319153,78.148270 
	C166.118149,80.437431 171.545319,82.742325 176.972488,85.047218 
	C176.972488,85.047218 176.994095,84.996307 177.146149,85.303284 
	C180.534058,88.732689 183.769943,91.855125 187.005829,94.977554 
z"/>
<path fill="#F2F5EF" opacity="1.000000" stroke="none" 
	d="
M116.869400,96.114807 
	C115.626488,100.092834 113.678345,103.994766 112.481621,108.114960 
	C108.484352,121.877068 110.815407,134.277222 121.206169,144.651352 
	C124.555984,147.995819 128.033020,151.212875 131.635895,154.771698 
	C127.330948,152.224472 121.506683,150.371460 118.590698,146.389008 
	C107.631058,131.421127 104.611313,114.259209 115.642365,96.552162 
	C115.784927,96.323318 116.213394,96.272583 116.869400,96.114807 
z"/>
<path fill="#F2F5EF" opacity="1.000000" stroke="none" 
	d="
M176.925690,84.701111 
	C171.545319,82.742325 166.118149,80.437431 159.861481,78.067657 
	C154.353851,77.955780 149.675690,77.908791 144.997543,77.861809 
	C147.094925,76.951721 149.306747,75.067627 151.270096,75.298309 
	C160.297012,76.358902 169.562653,77.117210 176.699814,83.897766 
	C176.807297,83.999870 176.821274,84.200401 176.925690,84.701111 
z"/>
<path fill="#F2F5EF" opacity="1.000000" stroke="none" 
	d="
M173.161728,155.928589 
	C176.922638,151.674911 181.082016,147.444031 185.785492,142.996216 
	C186.555695,142.530075 186.781769,142.280884 187.007843,142.031677 
	C188.122345,140.416550 189.236832,138.801407 190.632050,136.992889 
	C189.844696,143.945007 179.764969,155.069901 173.161728,155.928589 
z"/>
<path fill="#F2F5EF" opacity="1.000000" stroke="none" 
	d="
M148.032654,167.379333 
	C152.370255,170.571777 155.889481,167.929810 159.718903,165.223297 
	C157.930084,167.290115 156.144287,170.067291 153.603027,171.547470 
	C152.781754,172.025864 149.976593,169.098221 148.032654,167.379333 
z"/>
<path fill="#1D8E29" opacity="1.000000" stroke="none" 
	d="
M194.102142,125.019035 
	C193.736053,123.829597 193.178314,122.662361 193.037430,121.446823 
	C192.459656,116.461060 192.008850,111.460579 192.026642,106.395149 
	C192.933594,107.252625 193.325256,108.180466 193.716919,109.108315 
	C193.803787,109.530937 193.890686,109.953560 194.028778,111.078400 
	C194.432098,113.854919 194.784195,115.929214 195.136292,118.003510 
	C195.081299,119.714218 195.026306,121.424934 194.790680,123.699173 
	C194.443222,124.516479 194.273926,124.768593 194.102142,125.019035 
z"/>
<path fill="#F2F5EF" opacity="1.000000" stroke="none" 
	d="
M160.395554,164.996002 
	C163.452972,162.427078 166.892731,159.847229 170.679413,157.164017 
	C170.325089,163.213211 165.277954,163.745392 160.395554,164.996002 
z"/>
<path fill="#F2F5EF" opacity="1.000000" stroke="none" 
	d="
M186.999573,94.612045 
	C183.769943,91.855125 180.534058,88.732689 177.124695,85.320908 
	C183.323273,84.807037 184.780411,89.938599 186.999573,94.612045 
z"/>
<path fill="#0C7F11" opacity="1.000000" stroke="none" 
	d="
M144.688965,77.968750 
	C149.675690,77.908791 154.353851,77.955780 159.489655,78.083389 
	C158.874405,78.448418 157.816849,78.877960 156.726059,78.993340 
	C150.367645,79.665916 144.001404,80.264786 137.398163,80.572220 
	C137.820709,79.965782 138.482895,79.675690 139.145081,79.385597 
	C139.558655,79.272858 139.972244,79.160110 140.979950,78.999512 
	C142.079056,78.713280 142.584030,78.474907 143.089005,78.236526 
	C143.519455,78.182915 143.949921,78.129303 144.688965,77.968750 
z"/>
<path fill="#F2F5EF" opacity="1.000000" stroke="none" 
	d="
M194.001160,108.915932 
	C193.325256,108.180466 192.933594,107.252625 192.278931,106.159691 
	C190.661194,102.931625 189.306458,99.868652 187.870728,96.444382 
	C192.492676,98.992485 193.813309,103.639984 194.001160,108.915932 
z"/>
<path fill="#F2F5EF" opacity="1.000000" stroke="none" 
	d="
M194.149323,125.416443 
	C194.273926,124.768593 194.443222,124.516479 194.793381,124.127686 
	C194.251602,127.279579 193.526520,130.566498 192.451843,133.926758 
	C192.800354,131.271347 193.498428,128.542603 194.149323,125.416443 
z"/>
<path fill="#F2F5EF" opacity="1.000000" stroke="none" 
	d="
M141.127823,162.190048 
	C143.279800,163.373627 145.446396,164.907867 147.788788,166.730072 
	C145.690552,165.525589 143.416489,164.033142 141.127823,162.190048 
z"/>
<path fill="#F2F5EF" opacity="1.000000" stroke="none" 
	d="
M195.472260,117.926125 
	C194.784195,115.929214 194.432098,113.854919 194.121063,111.389015 
	C194.710831,113.281181 195.259521,115.564964 195.472260,117.926125 
z"/>
<path fill="#F2F5EF" opacity="1.000000" stroke="none" 
	d="
M138.958725,79.087479 
	C138.482895,79.675690 137.820709,79.965782 136.981964,80.475616 
	C136.805420,80.695351 136.863007,80.786858 136.553101,80.810509 
	C135.545456,80.999870 134.847702,81.165581 134.149948,81.331291 
	C135.690750,80.483986 137.231567,79.636673 138.958725,79.087479 
z"/>
<path fill="#F4F7F8" opacity="1.000000" stroke="none" 
	d="
M130.321838,184.054108 
	C129.871216,183.674896 129.697006,183.394562 129.278900,183.041199 
	C129.035004,182.968155 128.933319,182.516388 128.870453,182.293549 
	C130.192245,183.169327 131.576904,184.267960 132.950775,185.759689 
	C132.939987,186.152786 132.498215,186.037094 132.274597,185.990891 
	C131.566727,185.347458 131.082474,184.750244 130.321838,184.054108 
z"/>
<path fill="#F2F5EF" opacity="1.000000" stroke="none" 
	d="
M137.070099,159.307739 
	C138.300034,159.735184 139.564026,160.528259 140.988220,161.600647 
	C139.800323,161.144440 138.452240,160.408905 137.070099,159.307739 
z"/>
<path fill="#F2F5EF" opacity="1.000000" stroke="none" 
	d="
M134.109283,157.242920 
	C134.971771,157.395294 135.868011,157.902542 136.911285,158.685043 
	C136.086548,158.506134 135.114792,158.051971 134.109283,157.242920 
z"/>
<path fill="#F2F5EF" opacity="1.000000" stroke="none" 
	d="
M142.942169,77.988113 
	C142.584030,78.474907 142.079056,78.713280 141.285614,78.899094 
	C141.596542,78.477592 142.195938,78.108650 142.942169,77.988113 
z"/>
<path fill="#0C7F11" opacity="1.000000" stroke="none" 
	d="
M134.116943,81.500427 
	C134.847702,81.165581 135.545456,80.999870 136.600937,80.785316 
	C136.183395,81.136688 135.408127,81.536903 134.266739,81.949249 
	C133.900620,81.961395 134.083954,81.669563 134.116943,81.500427 
z"/>
<path fill="#0C7F11" opacity="1.000000" stroke="none" 
	d="
M133.730835,81.953545 
	C133.631058,82.218712 133.282623,82.520256 132.681442,82.867859 
	C132.779861,82.605919 133.131012,82.297920 133.730835,81.953545 
z"/>
<path fill="#F2F5EF" opacity="1.000000" stroke="none" 
	d="
M191.370453,135.829559 
	C191.275879,135.664978 191.369934,135.349823 191.692657,134.917084 
	C191.901077,135.134064 191.780334,135.427231 191.370453,135.829559 
z"/>
<path fill="#F2F5EF" opacity="1.000000" stroke="none" 
	d="
M133.124359,156.246063 
	C133.299149,156.175507 133.605453,156.317947 134.015259,156.698471 
	C133.831131,156.777374 133.543518,156.618210 133.124359,156.246063 
z"/>
<path fill="#F2F5EF" opacity="1.000000" stroke="none" 
	d="
M171.260071,156.948196 
	C171.159286,156.747986 171.315842,156.524857 171.757385,156.331177 
	C171.842010,156.543289 171.667038,156.731506 171.260071,156.948196 
z"/>
<path fill="#F6F5F3" opacity="1.000000" stroke="none" 
	d="
M186.734726,142.053680 
	C186.781769,142.280884 186.555695,142.530075 186.088593,142.865891 
	C186.052261,142.660233 186.256927,142.367950 186.734726,142.053680 
z"/>
</svg>